<svg width="249" height="39" viewBox="0 0 249 39" fill="none" xmlns="http://www.w3.org/2000/svg">
<path d="M1.96 28.14C1.60533 28.14 1.36267 28.1307 1.232 28.112C1.36267 27.0293 1.932 24.2853 2.94 19.88C3.96667 15.456 4.48 12.656 4.48 11.48C4.48 11.256 4.34933 10.9667 4.088 10.612C3.82667 10.2387 3.56533 9.93067 3.304 9.688L2.94 9.296L3.024 8.848C5.58133 8.36267 8.288 8.12 11.144 8.12C14.5787 8.12 16.296 9.47333 16.296 12.18C16.296 13.5053 15.96 14.7187 15.288 15.82C14.6347 16.9027 13.608 17.752 12.208 18.368C13.2533 21.8587 14.1493 24.1173 14.896 25.144C15.232 25.5733 15.4933 25.788 15.68 25.788C16.016 25.788 16.5387 25.62 17.248 25.284L17.584 25.116L18.228 26.152C17.5373 26.7867 16.7347 27.3093 15.82 27.72C14.924 28.1307 14.0747 28.336 13.272 28.336C12.488 28.336 11.8347 28 11.312 27.328C10.808 26.6373 10.3413 25.6293 9.912 24.304C9.50133 22.9787 9.08133 21.28 8.652 19.208C8.05467 19.2453 7.59733 19.264 7.28 19.264C6.328 23.352 5.80533 26.1147 5.712 27.552C4.90933 27.944 3.65867 28.14 1.96 28.14ZM8.372 17.36C9.492 17.36 10.3693 16.8653 11.004 15.876C11.6573 14.868 11.984 13.6733 11.984 12.292C11.984 11.564 11.8533 10.976 11.592 10.528C11.3307 10.08 10.9387 9.856 10.416 9.856C10.192 9.856 9.92133 9.89333 9.604 9.968C9.30533 10.024 9.156 10.0613 9.156 10.08C8.85733 12.0027 8.372 14.4293 7.7 17.36H8.372ZM18.4468 23.156C18.4468 20.8227 19.1468 18.984 20.5468 17.64C21.9654 16.2773 23.5708 15.596 25.3628 15.596C26.4641 15.596 27.3694 15.8667 28.0788 16.408C28.7881 16.9493 29.1428 17.6773 29.1428 18.592C29.1428 19.488 28.9094 20.244 28.4428 20.86C27.9948 21.476 27.4441 21.952 26.7908 22.288C25.4654 22.9413 24.2521 23.352 23.1508 23.52L22.4788 23.604C22.6094 25.3587 23.3281 26.236 24.6348 26.236C25.0828 26.236 25.5588 26.124 26.0628 25.9C26.5668 25.676 26.9588 25.452 27.2388 25.228L27.6588 24.892L28.3308 25.788C28.1814 25.9933 27.8828 26.264 27.4348 26.6C26.9868 26.936 26.5668 27.216 26.1748 27.44C25.0921 28.0373 23.9068 28.336 22.6188 28.336C21.3308 28.336 20.3134 27.8787 19.5667 26.964C18.8201 26.0493 18.4468 24.78 18.4468 23.156ZM22.4508 22.232C23.4028 22.064 24.1588 21.6627 24.7188 21.028C25.2788 20.3933 25.5588 19.572 25.5588 18.564C25.5588 17.556 25.2601 17.052 24.6628 17.052C23.9534 17.052 23.4028 17.6587 23.0108 18.872C22.6374 20.0667 22.4508 21.1867 22.4508 22.232ZM33.2703 31.024C32.6543 31.3973 32.3463 31.7613 32.3463 32.116C32.3463 32.4707 32.5423 32.648 32.9343 32.648C33.345 32.648 33.8023 32.452 34.3063 32.06C34.8103 31.6867 35.2303 31.0707 35.5663 30.212C34.6703 30.38 33.905 30.6507 33.2703 31.024ZM41.5863 15.792C41.661 15.8667 41.6983 16.0347 41.6983 16.296C41.6983 16.5387 41.6797 16.8093 41.6423 17.108C41.605 17.388 41.5397 18.032 41.4463 19.04C41.353 20.048 41.2597 20.9253 41.1663 21.672C40.2143 30.072 37.657 34.272 33.4943 34.272C32.8223 34.272 32.2063 34.0947 31.6463 33.74C31.105 33.3853 30.8343 32.928 30.8343 32.368C30.8343 31.6213 31.2917 30.94 32.2063 30.324C33.121 29.708 34.353 29.232 35.9023 28.896C35.9023 28.8773 35.9583 28.616 36.0703 28.112C36.1823 27.608 36.257 27.1973 36.2943 26.88C35.1743 27.7013 34.1197 28.112 33.1303 28.112C32.1597 28.112 31.357 27.7293 30.7223 26.964C30.1063 26.1987 29.7983 24.976 29.7983 23.296C29.7983 21.0933 30.293 19.264 31.2823 17.808C32.2717 16.3333 33.5783 15.596 35.2023 15.596C36.117 15.596 37.0223 15.82 37.9183 16.268C38.8703 15.932 39.897 15.764 40.9983 15.764L41.5863 15.792ZM36.4623 17.248C35.6597 17.248 35.025 17.9013 34.5583 19.208C34.0917 20.496 33.8583 21.9333 33.8583 23.52C33.8583 25.088 34.213 25.872 34.9223 25.872C35.389 25.872 35.9397 25.6947 36.5743 25.34C37.097 22.204 37.4703 19.6187 37.6943 17.584C37.1717 17.36 36.761 17.248 36.4623 17.248ZM48.4993 17.332C48.4993 18.116 48.2473 19.4693 47.7433 21.392C47.2393 23.296 46.9873 24.5467 46.9873 25.144C46.9873 25.7227 47.0713 26.012 47.2393 26.012C47.3513 26.012 47.7806 25.8347 48.5273 25.48L48.8633 25.312L49.3393 26.292C49.1713 26.4413 48.9473 26.628 48.6673 26.852C48.3873 27.076 47.8646 27.384 47.0993 27.776C46.3339 28.1493 45.6246 28.336 44.9713 28.336C44.3179 28.336 43.8046 28.14 43.4313 27.748C43.0579 27.3373 42.8713 26.796 42.8713 26.124C42.8713 25.4333 43.1046 24.22 43.5713 22.484C44.0379 20.7293 44.2713 19.5907 44.2713 19.068C44.2713 18.284 44.0286 17.5467 43.5433 16.856L43.2913 16.52L43.3193 16.156C44.3086 15.876 45.9139 15.736 48.1353 15.736C48.3779 16.016 48.4993 16.548 48.4993 17.332ZM45.3073 12.684C44.9339 12.3107 44.7473 11.816 44.7473 11.2C44.7473 10.584 44.9993 10.0427 45.5033 9.576C46.0259 9.10933 46.6233 8.876 47.2953 8.876C47.9673 8.876 48.4899 9.06267 48.8633 9.436C49.2366 9.80933 49.4233 10.304 49.4233 10.92C49.4233 11.5173 49.1526 12.0493 48.6113 12.516C48.0886 12.9827 47.5006 13.216 46.8473 13.216C46.1939 13.216 45.6806 13.0387 45.3073 12.684ZM58.9842 24.332C58.9842 25.508 58.4615 26.4693 57.4162 27.216C56.3895 27.9627 55.2135 28.336 53.8882 28.336C52.5629 28.336 51.5082 28.056 50.7242 27.496C49.9589 26.936 49.5762 26.4413 49.5762 26.012C49.5762 25.7507 49.9029 25.3307 50.5562 24.752C51.2095 24.1547 51.7602 23.7907 52.2082 23.66C53.1415 24.3507 53.9069 25.4427 54.5042 26.936C55.1949 26.88 55.5402 26.5533 55.5402 25.956C55.5402 25.0973 54.7842 23.884 53.2722 22.316C51.7602 20.7293 51.0042 19.4693 51.0042 18.536C51.0042 17.6027 51.4242 16.884 52.2642 16.38C53.1042 15.8573 54.1122 15.596 55.2882 15.596C56.4829 15.596 57.3789 15.8107 57.9762 16.24C58.5735 16.6507 58.8722 17.22 58.8722 17.948C58.8722 18.6573 58.3029 19.6467 57.1642 20.916C57.2949 21.0467 57.4629 21.224 57.6682 21.448C57.8735 21.6533 58.1442 22.0547 58.4802 22.652C58.8162 23.2493 58.9842 23.8093 58.9842 24.332ZM56.2962 19.936C57.0802 19.264 57.4722 18.6013 57.4722 17.948C57.4722 17.2947 57.0242 16.968 56.1282 16.968C55.6989 16.968 55.3442 17.0613 55.0642 17.248C54.7842 17.416 54.6442 17.612 54.6442 17.836C54.6442 18.2467 55.0549 18.8253 55.8762 19.572L56.2962 19.936ZM69.0493 15.932C69.012 16.3987 68.8533 16.94 68.5733 17.556C67.864 17.4813 67.192 17.444 66.5573 17.444H66.0533C65.1946 21.6067 64.7653 24.2013 64.7653 25.228C64.7653 25.7693 64.8773 26.04 65.1013 26.04C65.344 26.04 65.9693 25.8067 66.9773 25.34L67.4813 26.264C65.82 27.6453 64.28 28.336 62.8613 28.336C62.208 28.336 61.6666 28.1307 61.2373 27.72C60.8266 27.3093 60.6213 26.768 60.6213 26.096C60.6213 25.4053 60.696 24.6307 60.8453 23.772C61.0133 22.9133 61.2373 21.868 61.5173 20.636C61.7973 19.3853 62.0026 18.3773 62.1333 17.612C61.4426 17.668 60.9293 17.724 60.5933 17.78C60.556 17.556 60.5373 17.2573 60.5373 16.884C60.5373 16.492 60.5653 16.1747 60.6213 15.932H62.3853C62.5346 14.924 62.6093 13.972 62.6093 13.076L62.5813 12.208V12.124C64.0373 11.62 65.4093 11.368 66.6973 11.368C66.772 11.7413 66.8093 12.208 66.8093 12.768C66.8093 13.328 66.6506 14.3827 66.3333 15.932H69.0493ZM69.3766 28.084H69.1806C69.1432 27.9347 69.1246 27.5987 69.1246 27.076C69.1246 26.5347 69.3766 25.0973 69.8806 22.764C70.3846 20.4307 70.6366 19.096 70.6366 18.76C70.6366 18.1813 70.3752 17.5467 69.8526 16.856L69.6006 16.52L69.6286 16.156C70.6366 15.876 72.2512 15.736 74.4726 15.736C74.6966 16.2213 74.8086 16.9027 74.8086 17.78C75.0139 17.444 75.4432 16.996 76.0966 16.436C76.7499 15.876 77.4219 15.596 78.1126 15.596C79.1206 15.596 79.6246 16.4733 79.6246 18.228C79.5312 18.34 79.4006 18.4893 79.2326 18.676C79.0832 18.844 78.7659 19.0867 78.2806 19.404C77.8139 19.7213 77.3566 19.9173 76.9086 19.992C76.8899 19.992 76.7312 19.74 76.4326 19.236C76.1339 18.732 75.9099 18.48 75.7606 18.48C75.2939 18.648 74.8832 18.928 74.5286 19.32C73.6699 23.184 73.2406 25.6853 73.2406 26.824C73.2406 27.2347 73.2499 27.524 73.2686 27.692C72.6152 27.9533 71.3179 28.084 69.3766 28.084ZM87.3598 16.408C87.3971 16.3707 87.4998 16.128 87.6678 15.68C88.5451 15.68 89.7211 15.9413 91.1958 16.464C90.7291 18.0133 90.3558 19.6373 90.0758 21.336C89.7958 23.016 89.6558 24.22 89.6558 24.948C89.6558 25.6573 89.7304 26.012 89.8798 26.012C89.9918 26.012 90.4024 25.8347 91.1118 25.48L91.4478 25.312L91.9518 26.292C91.7838 26.4413 91.5598 26.628 91.2798 26.852C91.0184 27.076 90.5144 27.384 89.7678 27.776C89.0211 28.1493 88.3491 28.336 87.7518 28.336C86.5944 28.336 85.9224 27.8133 85.7358 26.768C84.5411 27.8133 83.4584 28.336 82.4878 28.336C81.5358 28.336 80.7238 27.9627 80.0518 27.216C79.3984 26.4693 79.0718 25.2933 79.0718 23.688C79.0718 21.1867 79.5851 19.2173 80.6118 17.78C81.6384 16.324 82.8798 15.596 84.3358 15.596C85.3811 15.596 86.3891 15.8667 87.3598 16.408ZM84.1678 25.956C84.6158 25.956 85.1198 25.7787 85.6798 25.424C85.8104 22.792 86.2491 20.188 86.9958 17.612C86.4358 17.3693 85.9598 17.248 85.5678 17.248C84.8958 17.248 84.3171 17.9107 83.8318 19.236C83.3651 20.5427 83.1318 21.9893 83.1318 23.576C83.1318 25.1627 83.4771 25.956 84.1678 25.956ZM101.233 15.932C101.196 16.3987 101.037 16.94 100.757 17.556C100.048 17.4813 99.3756 17.444 98.7409 17.444H98.2369C97.3782 21.6067 96.9489 24.2013 96.9489 25.228C96.9489 25.7693 97.0609 26.04 97.2849 26.04C97.5276 26.04 98.1529 25.8067 99.1609 25.34L99.6649 26.264C98.0036 27.6453 96.4636 28.336 95.0449 28.336C94.3916 28.336 93.8502 28.1307 93.4209 27.72C93.0102 27.3093 92.8049 26.768 92.8049 26.096C92.8049 25.4053 92.8796 24.6307 93.0289 23.772C93.1969 22.9133 93.4209 21.868 93.7009 20.636C93.9809 19.3853 94.1862 18.3773 94.3169 17.612C93.6262 17.668 93.1129 17.724 92.7769 17.78C92.7396 17.556 92.7209 17.2573 92.7209 16.884C92.7209 16.492 92.7489 16.1747 92.8049 15.932H94.5689C94.7182 14.924 94.7929 13.972 94.7929 13.076L94.7649 12.208V12.124C96.2209 11.62 97.5929 11.368 98.8809 11.368C98.9556 11.7413 98.9929 12.208 98.9929 12.768C98.9929 13.328 98.8342 14.3827 98.5169 15.932H101.233ZM106.796 17.332C106.796 18.116 106.544 19.4693 106.04 21.392C105.536 23.296 105.284 24.5467 105.284 25.144C105.284 25.7227 105.368 26.012 105.536 26.012C105.648 26.012 106.077 25.8347 106.824 25.48L107.16 25.312L107.636 26.292C107.468 26.4413 107.244 26.628 106.964 26.852C106.684 27.076 106.161 27.384 105.396 27.776C104.631 28.1493 103.921 28.336 103.268 28.336C102.615 28.336 102.101 28.14 101.728 27.748C101.355 27.3373 101.168 26.796 101.168 26.124C101.168 25.4333 101.401 24.22 101.868 22.484C102.335 20.7293 102.568 19.5907 102.568 19.068C102.568 18.284 102.325 17.5467 101.84 16.856L101.588 16.52L101.616 16.156C102.605 15.876 104.211 15.736 106.432 15.736C106.675 16.016 106.796 16.548 106.796 17.332ZM103.604 12.684C103.231 12.3107 103.044 11.816 103.044 11.2C103.044 10.584 103.296 10.0427 103.8 9.576C104.323 9.10933 104.92 8.876 105.592 8.876C106.264 8.876 106.787 9.06267 107.16 9.436C107.533 9.80933 107.72 10.304 107.72 10.92C107.72 11.5173 107.449 12.0493 106.908 12.516C106.385 12.9827 105.797 13.216 105.144 13.216C104.491 13.216 103.977 13.0387 103.604 12.684ZM112.549 28.336C111.261 28.336 110.253 27.888 109.525 26.992C108.797 26.0773 108.433 24.808 108.433 23.184C108.433 21.112 108.984 19.3293 110.085 17.836C111.205 16.3427 112.745 15.596 114.705 15.596L115.713 15.652C116.03 15.484 116.385 15.4 116.777 15.4C118.252 15.4 118.989 16.7907 118.989 19.572C119.754 19.5347 120.529 19.432 121.313 19.264L121.761 19.152L121.929 20.244C121.313 20.5053 120.482 20.7387 119.437 20.944L118.877 21.056C118.522 23.016 117.804 24.724 116.721 26.18C115.638 27.6173 114.248 28.336 112.549 28.336ZM114.061 25.928C114.845 25.928 115.545 25.424 116.161 24.416C116.796 23.408 117.234 22.344 117.477 21.224C115.48 21.224 114.481 20.4773 114.481 18.984C114.481 18.3867 114.602 17.8267 114.845 17.304L114.985 17.024C114.91 16.9867 114.817 16.968 114.705 16.968C114.593 16.968 114.509 16.9867 114.453 17.024C113.986 17.3227 113.548 18.0227 113.137 19.124C112.726 20.2253 112.521 21.4853 112.521 22.904C112.521 24.92 113.034 25.928 114.061 25.928ZM120.432 28.084H119.9C119.9 27.2067 120.161 25.5267 120.684 23.044C121.225 20.5613 121.496 19.152 121.496 18.816C121.496 18.2 121.235 17.5467 120.712 16.856L120.46 16.52L120.488 16.156C121.496 15.876 123.111 15.736 125.332 15.736C125.575 16.0533 125.705 16.632 125.724 17.472C127.348 16.2213 128.72 15.596 129.84 15.596C130.512 15.596 131.044 15.8293 131.436 16.296C131.847 16.7627 132.052 17.3507 132.052 18.06C132.052 18.7507 131.837 19.9547 131.408 21.672C130.979 23.3893 130.764 24.5467 130.764 25.144C130.764 25.7227 130.839 26.012 130.988 26.012C131.1 26.012 131.492 25.8347 132.164 25.48L132.5 25.312L133.004 26.292C132.836 26.4413 132.612 26.628 132.332 26.852C132.052 27.076 131.529 27.384 130.764 27.776C130.017 28.1493 129.345 28.336 128.748 28.336C127.385 28.336 126.704 27.5613 126.704 26.012C126.704 25.3587 126.909 24.1547 127.32 22.4C127.749 20.6453 127.964 19.516 127.964 19.012C127.964 18.508 127.805 18.256 127.488 18.256C126.947 18.256 126.284 18.4893 125.5 18.956C125.444 19.2733 125.257 20.1133 124.94 21.476C124.287 24.4067 123.96 26.4787 123.96 27.692C123.307 27.9533 122.131 28.084 120.432 28.084ZM157 25.704C157.224 25.704 157.616 25.536 158.176 25.2L158.456 25.032L159.156 26.068C157.644 27.524 156.188 28.252 154.788 28.252C153.388 28.252 152.184 27.5613 151.176 26.18C149.515 27.5987 147.648 28.308 145.576 28.308C143.952 28.308 142.655 27.8973 141.684 27.076C140.732 26.236 140.256 25.088 140.256 23.632C140.256 20.9627 142.001 18.6947 145.492 16.828C144.689 15.2787 144.288 13.9533 144.288 12.852C144.288 11.3587 144.829 10.2013 145.912 9.38C146.995 8.54 148.273 8.12 149.748 8.12C151.223 8.12 152.305 8.43733 152.996 9.072C153.705 9.688 154.06 10.416 154.06 11.256C154.06 12.824 152.679 14.56 149.916 16.464C150.775 18.1067 151.745 19.74 152.828 21.364C153.257 20.7853 153.724 20.0387 154.228 19.124C154.751 18.1907 155.059 17.6493 155.152 17.5C156.179 17.6493 156.832 17.9667 157.112 18.452C156.907 18.7133 156.449 19.376 155.74 20.44C155.049 21.504 154.48 22.316 154.032 22.876C155.507 24.7613 156.496 25.704 157 25.704ZM144.232 22.96C144.232 23.9867 144.465 24.7707 144.932 25.312C145.399 25.8347 145.968 26.096 146.64 26.096C147.312 26.096 147.9 25.9747 148.404 25.732C148.908 25.4893 149.281 25.2467 149.524 25.004L149.888 24.64C148.189 21.952 146.995 19.8893 146.304 18.452C144.923 19.5533 144.232 21.056 144.232 22.96ZM150.952 13.16C151.139 12.936 151.297 12.6747 151.428 12.376C151.559 12.0773 151.624 11.7507 151.624 11.396C151.624 11.0227 151.465 10.696 151.148 10.416C150.849 10.136 150.42 9.996 149.86 9.996C149.3 9.996 148.796 10.1547 148.348 10.472C147.919 10.7707 147.704 11.2747 147.704 11.984C147.704 12.6747 148.105 13.636 148.908 14.868C149.169 14.6813 149.412 14.5133 149.636 14.364C149.86 14.2147 150.093 14.028 150.336 13.804C150.579 13.58 150.784 13.3653 150.952 13.16ZM170.825 34.272C169.892 34.272 169.117 34.0387 168.501 33.572C167.885 33.124 167.577 32.4987 167.577 31.696C167.577 29.5493 169.771 28.14 174.157 27.468C174.325 26.852 174.456 26.2547 174.549 25.676C173.691 26.1987 172.785 26.46 171.833 26.46C170.097 26.46 168.697 25.8347 167.633 24.584C166.569 23.3147 166.037 21.672 166.037 19.656C166.037 17.64 166.429 15.7733 167.213 14.056C167.997 12.3387 169.117 10.92 170.573 9.8C172.048 8.68 173.607 8.12 175.249 8.12C176.911 8.12 178.264 8.53067 179.309 9.352C180.373 10.1547 180.905 11.1813 180.905 12.432C180.905 13.1787 180.775 13.7853 180.513 14.252C180.364 14.2707 180.159 14.28 179.897 14.28C178.46 14.28 177.377 14.0467 176.649 13.58L176.677 10.556C176.229 10.164 175.641 9.968 174.913 9.968C173.775 9.968 172.767 10.8453 171.889 12.6C171.012 14.336 170.573 16.4547 170.573 18.956C170.573 20.6173 170.844 21.84 171.385 22.624C171.927 23.408 172.571 23.8 173.317 23.8C174.437 23.8 175.445 23.24 176.341 22.12C177.237 21 177.881 19.6653 178.273 18.116L179.785 18.368C179.076 23.7067 178.003 27.692 176.565 30.324C175.128 32.956 173.215 34.272 170.825 34.272ZM169.397 31.612C169.397 32.1347 169.836 32.396 170.713 32.396C171.161 32.396 171.693 32.116 172.309 31.556C172.925 31.0147 173.392 30.3053 173.709 29.428C172.627 29.5213 171.637 29.764 170.741 30.156C169.845 30.5667 169.397 31.052 169.397 31.612ZM181.224 23.156C181.224 20.8227 181.924 18.984 183.324 17.64C184.743 16.2773 186.348 15.596 188.14 15.596C189.241 15.596 190.147 15.8667 190.856 16.408C191.565 16.9493 191.92 17.6773 191.92 18.592C191.92 19.488 191.687 20.244 191.22 20.86C190.772 21.476 190.221 21.952 189.568 22.288C188.243 22.9413 187.029 23.352 185.928 23.52L185.256 23.604C185.387 25.3587 186.105 26.236 187.412 26.236C187.86 26.236 188.336 26.124 188.84 25.9C189.344 25.676 189.736 25.452 190.016 25.228L190.436 24.892L191.108 25.788C190.959 25.9933 190.66 26.264 190.212 26.6C189.764 26.936 189.344 27.216 188.952 27.44C187.869 28.0373 186.684 28.336 185.396 28.336C184.108 28.336 183.091 27.8787 182.344 26.964C181.597 26.0493 181.224 24.78 181.224 23.156ZM185.228 22.232C186.18 22.064 186.936 21.6627 187.496 21.028C188.056 20.3933 188.336 19.572 188.336 18.564C188.336 17.556 188.037 17.052 187.44 17.052C186.731 17.052 186.18 17.6587 185.788 18.872C185.415 20.0667 185.228 21.1867 185.228 22.232ZM193.276 28.084H192.744C192.744 27.2067 193.005 25.5267 193.528 23.044C194.069 20.5613 194.34 19.152 194.34 18.816C194.34 18.2 194.078 17.5467 193.556 16.856L193.304 16.52L193.332 16.156C194.34 15.876 195.954 15.736 198.176 15.736C198.418 16.0533 198.549 16.632 198.568 17.472C200.192 16.2213 201.564 15.596 202.684 15.596C203.356 15.596 203.888 15.8293 204.28 16.296C204.69 16.7627 204.896 17.3507 204.896 18.06C204.896 18.7507 204.681 19.9547 204.252 21.672C203.822 23.3893 203.608 24.5467 203.608 25.144C203.608 25.7227 203.682 26.012 203.832 26.012C203.944 26.012 204.336 25.8347 205.008 25.48L205.344 25.312L205.848 26.292C205.68 26.4413 205.456 26.628 205.176 26.852C204.896 27.076 204.373 27.384 203.608 27.776C202.861 28.1493 202.189 28.336 201.592 28.336C200.229 28.336 199.548 27.5613 199.548 26.012C199.548 25.3587 199.753 24.1547 200.164 22.4C200.593 20.6453 200.808 19.516 200.808 19.012C200.808 18.508 200.649 18.256 200.332 18.256C199.79 18.256 199.128 18.4893 198.344 18.956C198.288 19.2733 198.101 20.1133 197.784 21.476C197.13 24.4067 196.804 26.4787 196.804 27.692C196.15 27.9533 194.974 28.084 193.276 28.084ZM206.626 23.156C206.626 20.8227 207.326 18.984 208.726 17.64C210.145 16.2773 211.75 15.596 213.542 15.596C214.644 15.596 215.549 15.8667 216.258 16.408C216.968 16.9493 217.322 17.6773 217.322 18.592C217.322 19.488 217.089 20.244 216.622 20.86C216.174 21.476 215.624 21.952 214.97 22.288C213.645 22.9413 212.432 23.352 211.33 23.52L210.658 23.604C210.789 25.3587 211.508 26.236 212.814 26.236C213.262 26.236 213.738 26.124 214.242 25.9C214.746 25.676 215.138 25.452 215.418 25.228L215.838 24.892L216.51 25.788C216.361 25.9933 216.062 26.264 215.614 26.6C215.166 26.936 214.746 27.216 214.354 27.44C213.272 28.0373 212.086 28.336 210.798 28.336C209.51 28.336 208.493 27.8787 207.746 26.964C207 26.0493 206.626 24.78 206.626 23.156ZM210.63 22.232C211.582 22.064 212.338 21.6627 212.898 21.028C213.458 20.3933 213.738 19.572 213.738 18.564C213.738 17.556 213.44 17.052 212.842 17.052C212.133 17.052 211.582 17.6587 211.19 18.872C210.817 20.0667 210.63 21.1867 210.63 22.232ZM218.482 28.084H218.286C218.249 27.9347 218.23 27.5987 218.23 27.076C218.23 26.5347 218.482 25.0973 218.986 22.764C219.49 20.4307 219.742 19.096 219.742 18.76C219.742 18.1813 219.481 17.5467 218.958 16.856L218.706 16.52L218.734 16.156C219.742 15.876 221.357 15.736 223.578 15.736C223.802 16.2213 223.914 16.9027 223.914 17.78C224.119 17.444 224.549 16.996 225.202 16.436C225.855 15.876 226.527 15.596 227.218 15.596C228.226 15.596 228.73 16.4733 228.73 18.228C228.637 18.34 228.506 18.4893 228.338 18.676C228.189 18.844 227.871 19.0867 227.386 19.404C226.919 19.7213 226.462 19.9173 226.014 19.992C225.995 19.992 225.837 19.74 225.538 19.236C225.239 18.732 225.015 18.48 224.866 18.48C224.399 18.648 223.989 18.928 223.634 19.32C222.775 23.184 222.346 25.6853 222.346 26.824C222.346 27.2347 222.355 27.524 222.374 27.692C221.721 27.9533 220.423 28.084 218.482 28.084ZM236.465 16.408C236.503 16.3707 236.605 16.128 236.773 15.68C237.651 15.68 238.827 15.9413 240.301 16.464C239.835 18.0133 239.461 19.6373 239.181 21.336C238.901 23.016 238.761 24.22 238.761 24.948C238.761 25.6573 238.836 26.012 238.985 26.012C239.097 26.012 239.508 25.8347 240.217 25.48L240.553 25.312L241.057 26.292C240.889 26.4413 240.665 26.628 240.385 26.852C240.124 27.076 239.62 27.384 238.873 27.776C238.127 28.1493 237.455 28.336 236.857 28.336C235.7 28.336 235.028 27.8133 234.841 26.768C233.647 27.8133 232.564 28.336 231.593 28.336C230.641 28.336 229.829 27.9627 229.157 27.216C228.504 26.4693 228.177 25.2933 228.177 23.688C228.177 21.1867 228.691 19.2173 229.717 17.78C230.744 16.324 231.985 15.596 233.441 15.596C234.487 15.596 235.495 15.8667 236.465 16.408ZM233.273 25.956C233.721 25.956 234.225 25.7787 234.785 25.424C234.916 22.792 235.355 20.188 236.101 17.612C235.541 17.3693 235.065 17.248 234.673 17.248C234.001 17.248 233.423 17.9107 232.937 19.236C232.471 20.5427 232.237 21.9893 232.237 23.576C232.237 25.1627 232.583 25.956 233.273 25.956ZM243.73 28.336C243.096 28.336 242.564 28.1213 242.134 27.692C241.724 27.2627 241.518 26.6653 241.518 25.9C241.518 25.116 241.976 22.6427 242.89 18.48C243.824 14.2987 244.29 11.284 244.29 9.436L244.122 8.204C245.578 7.7 246.941 7.448 248.21 7.448C248.397 7.70933 248.49 8.16667 248.49 8.82C248.49 10.3133 248.014 13.2067 247.062 17.5C246.129 21.7747 245.662 24.2667 245.662 24.976C245.662 25.6667 245.746 26.012 245.914 26.012L247.874 25.312L248.378 26.292C247.744 26.796 246.969 27.2627 246.054 27.692C245.158 28.1213 244.384 28.336 243.73 28.336Z" fill="#E6D6B5"/>
</svg>
