<svg width="223" height="22" viewBox="0 0 223 22" fill="none" xmlns="http://www.w3.org/2000/svg">
<path d="M3.18 20.636C3.04933 21.0467 2.75067 21.252 2.284 21.252C1.836 21.252 1.32267 21 0.744 20.496C1.304 18.8533 2.48933 16.212 4.3 12.572C6.11067 8.91333 7.28667 6.17867 7.828 4.368C7.90267 4.06933 7.94 3.864 7.94 3.752C7.94 3.472 7.73467 3.04267 7.324 2.464L7.1 2.156L7.156 1.792C8.74267 1.344 10.4973 1.12 12.42 1.12L14.128 1.232C14.3333 1.512 14.492 1.94133 14.604 2.52C14.9027 3.93867 15.052 7.588 15.052 13.468C15.052 15.7453 15.248 17.3507 15.64 18.284C15.7893 18.6387 15.9387 18.816 16.088 18.816C16.2373 18.816 16.6947 18.6293 17.46 18.256L17.824 18.088L18.384 19.096C17.6747 19.7867 16.8813 20.3373 16.004 20.748C15.1453 21.14 14.352 21.336 13.624 21.336C11.7387 21.336 10.796 19.8707 10.796 16.94V14.728C10.3107 14.616 9.57333 14.56 8.584 14.56C7.59467 14.56 6.512 14.6533 5.336 14.84C4.40267 17.0053 3.684 18.9373 3.18 20.636ZM10.852 12.824L10.88 9.576C10.88 6.73867 10.7587 4.816 10.516 3.808C10.3667 3.808 10.2547 3.82667 10.18 3.864C9.65733 5.30133 9.16267 6.524 8.696 7.532C8.248 8.52133 7.75333 9.58533 7.212 10.724C6.68933 11.844 6.36267 12.544 6.232 12.824H10.852ZM24.9128 9.996C24.1661 9.996 23.5688 10.6213 23.1208 11.872C22.6728 13.104 22.4488 14.4293 22.4488 15.848C22.4488 18.088 23.1395 19.208 24.5208 19.208C24.9688 19.208 25.4448 19.1053 25.9488 18.9C26.4528 18.676 26.8541 18.4613 27.1528 18.256L27.5728 17.92L28.2168 18.788C28.0675 18.9933 27.7688 19.264 27.3208 19.6C26.8728 19.936 26.4528 20.216 26.0608 20.44C25.6688 20.664 25.1648 20.8693 24.5488 21.056C23.9328 21.2427 23.3261 21.336 22.7288 21.336C21.2728 21.336 20.1808 20.86 19.4528 19.908C18.7248 18.956 18.3608 17.6773 18.3608 16.072C18.3608 13.8507 18.9675 12.0493 20.1808 10.668C21.4128 9.28667 22.9901 8.596 24.9128 8.596C26.1635 8.596 27.1528 8.88533 27.8808 9.464C28.6275 10.024 29.0008 10.724 29.0008 11.564C29.0008 12.3853 28.7395 13.0947 28.2168 13.692C27.7501 13.692 27.2088 13.5893 26.5928 13.384C25.9768 13.1787 25.5101 12.9267 25.1928 12.628L25.6128 10.164C25.4448 10.052 25.2115 9.996 24.9128 9.996ZM36.0417 9.996C35.2951 9.996 34.6977 10.6213 34.2497 11.872C33.8017 13.104 33.5777 14.4293 33.5777 15.848C33.5777 18.088 34.2684 19.208 35.6497 19.208C36.0977 19.208 36.5737 19.1053 37.0777 18.9C37.5817 18.676 37.9831 18.4613 38.2817 18.256L38.7017 17.92L39.3457 18.788C39.1964 18.9933 38.8977 19.264 38.4497 19.6C38.0017 19.936 37.5817 20.216 37.1897 20.44C36.7977 20.664 36.2937 20.8693 35.6777 21.056C35.0617 21.2427 34.4551 21.336 33.8577 21.336C32.4017 21.336 31.3097 20.86 30.5817 19.908C29.8537 18.956 29.4897 17.6773 29.4897 16.072C29.4897 13.8507 30.0964 12.0493 31.3097 10.668C32.5417 9.28667 34.1191 8.596 36.0417 8.596C37.2924 8.596 38.2817 8.88533 39.0097 9.464C39.7564 10.024 40.1297 10.724 40.1297 11.564C40.1297 12.3853 39.8684 13.0947 39.3457 13.692C38.8791 13.692 38.3377 13.5893 37.7217 13.384C37.1057 13.1787 36.6391 12.9267 36.3217 12.628L36.7417 10.164C36.5737 10.052 36.3404 9.996 36.0417 9.996ZM44.6506 21.336C43.3626 21.336 42.3546 20.888 41.6266 19.992C40.8986 19.0773 40.5346 17.808 40.5346 16.184C40.5346 14.112 41.0853 12.3293 42.1866 10.836C43.3066 9.34267 44.8466 8.596 46.8066 8.596L47.8146 8.652C48.132 8.484 48.4866 8.4 48.8786 8.4C50.3533 8.4 51.0906 9.79067 51.0906 12.572C51.856 12.5347 52.6306 12.432 53.4146 12.264L53.8626 12.152L54.0306 13.244C53.4146 13.5053 52.584 13.7387 51.5386 13.944L50.9786 14.056C50.624 16.016 49.9053 17.724 48.8226 19.18C47.74 20.6173 46.3493 21.336 44.6506 21.336ZM46.1626 18.928C46.9466 18.928 47.6466 18.424 48.2626 17.416C48.8973 16.408 49.336 15.344 49.5786 14.224C47.5813 14.224 46.5826 13.4773 46.5826 11.984C46.5826 11.3867 46.704 10.8267 46.9466 10.304L47.0866 10.024C47.012 9.98667 46.9186 9.968 46.8066 9.968C46.6946 9.968 46.6106 9.98667 46.5546 10.024C46.088 10.3227 45.6493 11.0227 45.2386 12.124C44.828 13.2253 44.6226 14.4853 44.6226 15.904C44.6226 17.92 45.136 18.928 46.1626 18.928ZM52.4515 21.084H51.9195C51.9195 20.2067 52.1808 18.5267 52.7035 16.044C53.2448 13.5613 53.5155 12.152 53.5155 11.816C53.5155 11.2 53.2541 10.5467 52.7315 9.856L52.4795 9.52L52.5075 9.156C53.5155 8.876 55.1301 8.736 57.3515 8.736C57.6128 9.09067 57.7435 9.66933 57.7435 10.472C59.4235 9.22133 60.7581 8.596 61.7475 8.596C62.9981 8.596 63.7355 9.24 63.9595 10.528C64.4635 10.1173 65.1168 9.69733 65.9195 9.268C66.7408 8.82 67.4688 8.596 68.1035 8.596C68.7568 8.596 69.2981 8.81067 69.7275 9.24C70.1568 9.65067 70.3715 10.2293 70.3715 10.976C70.3715 11.7227 70.1661 12.9547 69.7555 14.672C69.3448 16.3893 69.1395 17.5467 69.1395 18.144C69.1395 18.7227 69.2235 19.012 69.3915 19.012C69.5035 19.012 69.8861 18.8347 70.5395 18.48L70.8475 18.312L71.3515 19.292C70.8661 19.7773 70.2035 20.244 69.3635 20.692C68.5421 21.1213 67.8141 21.336 67.1795 21.336C65.7795 21.336 65.0795 20.5427 65.0795 18.956C65.0795 18.3773 65.2755 17.22 65.6675 15.484C66.0781 13.7293 66.2835 12.5907 66.2835 12.068C66.2835 11.5267 66.1248 11.256 65.8075 11.256C65.2661 11.256 64.6501 11.4613 63.9595 11.872C63.9221 12.2453 63.6608 13.5147 63.1755 15.68C62.7088 17.8453 62.4755 19.5253 62.4755 20.72C61.9341 20.9627 60.6648 21.084 58.6675 21.084C58.6301 20.8787 58.6115 20.384 58.6115 19.6C58.6115 18.816 58.8261 17.4813 59.2555 15.596C59.7035 13.7107 59.9275 12.516 59.9275 12.012C59.9275 11.508 59.7501 11.256 59.3955 11.256C58.8355 11.256 58.2195 11.48 57.5475 11.928C57.5101 12.096 57.3235 12.9173 56.9875 14.392C56.3155 17.3413 55.9795 19.4413 55.9795 20.692C55.3261 20.9533 54.1501 21.084 52.4515 21.084ZM76.178 21.336C74.89 21.336 73.882 20.888 73.154 19.992C72.426 19.0773 72.062 17.808 72.062 16.184C72.062 14.112 72.6126 12.3293 73.714 10.836C74.834 9.34267 76.374 8.596 78.334 8.596L79.342 8.652C79.6593 8.484 80.014 8.4 80.406 8.4C81.8806 8.4 82.618 9.79067 82.618 12.572C83.3833 12.5347 84.158 12.432 84.942 12.264L85.39 12.152L85.558 13.244C84.942 13.5053 84.1113 13.7387 83.066 13.944L82.506 14.056C82.1513 16.016 81.4326 17.724 80.35 19.18C79.2673 20.6173 77.8766 21.336 76.178 21.336ZM77.69 18.928C78.474 18.928 79.174 18.424 79.79 17.416C80.4246 16.408 80.8633 15.344 81.106 14.224C79.1086 14.224 78.11 13.4773 78.11 11.984C78.11 11.3867 78.2313 10.8267 78.474 10.304L78.614 10.024C78.5393 9.98667 78.446 9.968 78.334 9.968C78.222 9.968 78.138 9.98667 78.082 10.024C77.6153 10.3227 77.1766 11.0227 76.766 12.124C76.3553 13.2253 76.15 14.4853 76.15 15.904C76.15 17.92 76.6633 18.928 77.69 18.928ZM96.987 19.292C95.4003 20.6547 94.0003 21.336 92.787 21.336C91.5923 21.336 90.9017 20.7387 90.715 19.544C90.155 20.104 89.5297 20.5427 88.839 20.86C88.1483 21.1773 87.5417 21.336 87.019 21.336C86.123 21.336 85.3577 20.944 84.723 20.16C84.0883 19.376 83.771 18.1627 83.771 16.52C83.771 14.056 84.2937 12.124 85.339 10.724C86.3843 9.30533 87.5603 8.596 88.867 8.596C90.1923 8.596 91.303 8.89467 92.199 9.492C92.7777 6.468 93.067 4.088 93.067 2.352L92.927 1.176C94.327 0.690666 95.699 0.447999 97.043 0.447999C97.1923 0.765333 97.267 1.12933 97.267 1.54C97.267 2.90267 96.8563 5.67467 96.035 9.856C95.2137 14.0187 94.803 16.8467 94.803 18.34C94.803 18.788 94.9057 19.012 95.111 19.012C95.223 19.012 95.5777 18.8347 96.175 18.48L96.455 18.312L96.987 19.292ZM90.239 10.248C89.5857 10.248 89.0163 10.892 88.531 12.18C88.0643 13.468 87.831 14.7467 87.831 16.016C87.831 17.2667 87.915 18.0693 88.083 18.424C88.2697 18.7787 88.5403 18.956 88.895 18.956C89.511 18.956 90.1177 18.704 90.715 18.2C90.771 17.4533 91.191 14.9707 91.975 10.752C91.3403 10.416 90.7617 10.248 90.239 10.248ZM106.114 9.408C106.151 9.37067 106.254 9.128 106.422 8.68C107.299 8.68 108.475 8.94133 109.95 9.464C109.483 11.0133 109.11 12.6373 108.83 14.336C108.55 16.016 108.41 17.22 108.41 17.948C108.41 18.6573 108.484 19.012 108.634 19.012C108.746 19.012 109.156 18.8347 109.866 18.48L110.202 18.312L110.706 19.292C110.538 19.4413 110.314 19.628 110.034 19.852C109.772 20.076 109.268 20.384 108.522 20.776C107.775 21.1493 107.103 21.336 106.506 21.336C105.348 21.336 104.676 20.8133 104.49 19.768C103.295 20.8133 102.212 21.336 101.242 21.336C100.29 21.336 99.4777 20.9627 98.8057 20.216C98.1524 19.4693 97.8257 18.2933 97.8257 16.688C97.8257 14.1867 98.339 12.2173 99.3657 10.78C100.392 9.324 101.634 8.596 103.09 8.596C104.135 8.596 105.143 8.86667 106.114 9.408ZM102.922 18.956C103.37 18.956 103.874 18.7787 104.434 18.424C104.564 15.792 105.003 13.188 105.75 10.612C105.19 10.3693 104.714 10.248 104.322 10.248C103.65 10.248 103.071 10.9107 102.586 12.236C102.119 13.5427 101.886 14.9893 101.886 16.576C101.886 18.1627 102.231 18.956 102.922 18.956ZM119.987 8.932C119.949 9.39867 119.791 9.94 119.511 10.556C118.801 10.4813 118.129 10.444 117.495 10.444H116.991C116.132 14.6067 115.703 17.2013 115.703 18.228C115.703 18.7693 115.815 19.04 116.039 19.04C116.281 19.04 116.907 18.8067 117.915 18.34L118.419 19.264C116.757 20.6453 115.217 21.336 113.799 21.336C113.145 21.336 112.604 21.1307 112.175 20.72C111.764 20.3093 111.559 19.768 111.559 19.096C111.559 18.4053 111.633 17.6307 111.783 16.772C111.951 15.9133 112.175 14.868 112.455 13.636C112.735 12.3853 112.94 11.3773 113.071 10.612C112.38 10.668 111.867 10.724 111.531 10.78C111.493 10.556 111.475 10.2573 111.475 9.884C111.475 9.492 111.503 9.17467 111.559 8.932H113.323C113.472 7.924 113.547 6.972 113.547 6.076L113.519 5.208V5.124C114.975 4.62 116.347 4.368 117.635 4.368C117.709 4.74133 117.747 5.208 117.747 5.768C117.747 6.328 117.588 7.38267 117.271 8.932H119.987ZM125.55 10.332C125.55 11.116 125.298 12.4693 124.794 14.392C124.29 16.296 124.038 17.5467 124.038 18.144C124.038 18.7227 124.122 19.012 124.29 19.012C124.402 19.012 124.831 18.8347 125.578 18.48L125.914 18.312L126.39 19.292C126.222 19.4413 125.998 19.628 125.718 19.852C125.438 20.076 124.915 20.384 124.15 20.776C123.385 21.1493 122.675 21.336 122.022 21.336C121.369 21.336 120.855 21.14 120.482 20.748C120.109 20.3373 119.922 19.796 119.922 19.124C119.922 18.4333 120.155 17.22 120.622 15.484C121.089 13.7293 121.322 12.5907 121.322 12.068C121.322 11.284 121.079 10.5467 120.594 9.856L120.342 9.52L120.37 9.156C121.359 8.876 122.965 8.736 125.186 8.736C125.429 9.016 125.55 9.548 125.55 10.332ZM122.358 5.684C121.985 5.31067 121.798 4.816 121.798 4.2C121.798 3.584 122.05 3.04267 122.554 2.576C123.077 2.10933 123.674 1.876 124.346 1.876C125.018 1.876 125.541 2.06267 125.914 2.436C126.287 2.80933 126.474 3.304 126.474 3.92C126.474 4.51733 126.203 5.04933 125.662 5.516C125.139 5.98267 124.551 6.216 123.898 6.216C123.245 6.216 122.731 6.03867 122.358 5.684ZM131.303 21.336C130.015 21.336 129.007 20.888 128.279 19.992C127.551 19.0773 127.187 17.808 127.187 16.184C127.187 14.112 127.738 12.3293 128.839 10.836C129.959 9.34267 131.499 8.596 133.459 8.596L134.467 8.652C134.784 8.484 135.139 8.4 135.531 8.4C137.006 8.4 137.743 9.79067 137.743 12.572C138.508 12.5347 139.283 12.432 140.067 12.264L140.515 12.152L140.683 13.244C140.067 13.5053 139.236 13.7387 138.191 13.944L137.631 14.056C137.276 16.016 136.558 17.724 135.475 19.18C134.392 20.6173 133.002 21.336 131.303 21.336ZM132.815 18.928C133.599 18.928 134.299 18.424 134.915 17.416C135.55 16.408 135.988 15.344 136.231 14.224C134.234 14.224 133.235 13.4773 133.235 11.984C133.235 11.3867 133.356 10.8267 133.599 10.304L133.739 10.024C133.664 9.98667 133.571 9.968 133.459 9.968C133.347 9.968 133.263 9.98667 133.207 10.024C132.74 10.3227 132.302 11.0227 131.891 12.124C131.48 13.2253 131.275 14.4853 131.275 15.904C131.275 17.92 131.788 18.928 132.815 18.928ZM139.186 21.084H138.654C138.654 20.2067 138.915 18.5267 139.438 16.044C139.979 13.5613 140.25 12.152 140.25 11.816C140.25 11.2 139.989 10.5467 139.466 9.856L139.214 9.52L139.242 9.156C140.25 8.876 141.865 8.736 144.086 8.736C144.329 9.05333 144.459 9.632 144.478 10.472C146.102 9.22133 147.474 8.596 148.594 8.596C149.266 8.596 149.798 8.82933 150.19 9.296C150.601 9.76267 150.806 10.3507 150.806 11.06C150.806 11.7507 150.591 12.9547 150.162 14.672C149.733 16.3893 149.518 17.5467 149.518 18.144C149.518 18.7227 149.593 19.012 149.742 19.012C149.854 19.012 150.246 18.8347 150.918 18.48L151.254 18.312L151.758 19.292C151.59 19.4413 151.366 19.628 151.086 19.852C150.806 20.076 150.283 20.384 149.518 20.776C148.771 21.1493 148.099 21.336 147.502 21.336C146.139 21.336 145.458 20.5613 145.458 19.012C145.458 18.3587 145.663 17.1547 146.074 15.4C146.503 13.6453 146.718 12.516 146.718 12.012C146.718 11.508 146.559 11.256 146.242 11.256C145.701 11.256 145.038 11.4893 144.254 11.956C144.198 12.2733 144.011 13.1133 143.694 14.476C143.041 17.4067 142.714 19.4787 142.714 20.692C142.061 20.9533 140.885 21.084 139.186 21.084ZM161.301 17.332C161.301 18.508 160.778 19.4693 159.733 20.216C158.706 20.9627 157.53 21.336 156.205 21.336C154.879 21.336 153.825 21.056 153.041 20.496C152.275 19.936 151.893 19.4413 151.893 19.012C151.893 18.7507 152.219 18.3307 152.873 17.752C153.526 17.1547 154.077 16.7907 154.525 16.66C155.458 17.3507 156.223 18.4427 156.821 19.936C157.511 19.88 157.857 19.5533 157.857 18.956C157.857 18.0973 157.101 16.884 155.589 15.316C154.077 13.7293 153.321 12.4693 153.321 11.536C153.321 10.6027 153.741 9.884 154.581 9.38C155.421 8.85733 156.429 8.596 157.605 8.596C158.799 8.596 159.695 8.81067 160.293 9.24C160.89 9.65067 161.189 10.22 161.189 10.948C161.189 11.6573 160.619 12.6467 159.481 13.916C159.611 14.0467 159.779 14.224 159.985 14.448C160.19 14.6533 160.461 15.0547 160.797 15.652C161.133 16.2493 161.301 16.8093 161.301 17.332ZM158.613 12.936C159.397 12.264 159.789 11.6013 159.789 10.948C159.789 10.2947 159.341 9.968 158.445 9.968C158.015 9.968 157.661 10.0613 157.381 10.248C157.101 10.416 156.961 10.612 156.961 10.836C156.961 11.2467 157.371 11.8253 158.193 12.572L158.613 12.936ZM185.707 18.704C185.931 18.704 186.323 18.536 186.883 18.2L187.163 18.032L187.863 19.068C186.351 20.524 184.895 21.252 183.495 21.252C182.095 21.252 180.891 20.5613 179.883 19.18C178.222 20.5987 176.355 21.308 174.283 21.308C172.659 21.308 171.362 20.8973 170.391 20.076C169.439 19.236 168.963 18.088 168.963 16.632C168.963 13.9627 170.709 11.6947 174.199 9.828C173.397 8.27867 172.995 6.95333 172.995 5.852C172.995 4.35867 173.537 3.20133 174.619 2.38C175.702 1.54 176.981 1.12 178.455 1.12C179.93 1.12 181.013 1.43733 181.703 2.072C182.413 2.688 182.767 3.416 182.767 4.256C182.767 5.824 181.386 7.56 178.623 9.464C179.482 11.1067 180.453 12.74 181.535 14.364C181.965 13.7853 182.431 13.0387 182.935 12.124C183.458 11.1907 183.766 10.6493 183.859 10.5C184.886 10.6493 185.539 10.9667 185.819 11.452C185.614 11.7133 185.157 12.376 184.447 13.44C183.757 14.504 183.187 15.316 182.739 15.876C184.214 17.7613 185.203 18.704 185.707 18.704ZM172.939 15.96C172.939 16.9867 173.173 17.7707 173.639 18.312C174.106 18.8347 174.675 19.096 175.347 19.096C176.019 19.096 176.607 18.9747 177.111 18.732C177.615 18.4893 177.989 18.2467 178.231 18.004L178.595 17.64C176.897 14.952 175.702 12.8893 175.011 11.452C173.63 12.5533 172.939 14.056 172.939 15.96ZM179.659 6.16C179.846 5.936 180.005 5.67467 180.135 5.376C180.266 5.07733 180.331 4.75067 180.331 4.396C180.331 4.02267 180.173 3.696 179.855 3.416C179.557 3.136 179.127 2.996 178.567 2.996C178.007 2.996 177.503 3.15467 177.055 3.472C176.626 3.77067 176.411 4.27467 176.411 4.984C176.411 5.67467 176.813 6.636 177.615 7.868C177.877 7.68133 178.119 7.51333 178.343 7.364C178.567 7.21467 178.801 7.028 179.043 6.804C179.286 6.58 179.491 6.36533 179.659 6.16ZM200.764 21.336C199.028 21.336 197.591 20.636 196.452 19.236C195.314 17.8173 194.744 15.9693 194.744 13.692C194.744 11.4147 195.136 9.34267 195.92 7.476C196.704 5.59067 197.824 4.06 199.28 2.884C200.736 1.708 202.286 1.12 203.928 1.12C205.59 1.12 206.924 1.49333 207.932 2.24C208.959 2.98667 209.472 3.88267 209.472 4.928C209.472 5.95467 209.164 6.832 208.548 7.56C207.951 7.56 207.279 7.42933 206.532 7.168C205.786 6.90667 205.226 6.58933 204.852 6.216L205.384 3.388C204.936 3.108 204.348 2.968 203.62 2.968C202.482 2.968 201.474 3.948 200.596 5.908C199.719 7.84933 199.28 10.248 199.28 13.104C199.28 14.9893 199.588 16.3613 200.204 17.22C200.839 18.06 201.604 18.48 202.5 18.48C203.975 18.48 205.394 17.7893 206.756 16.408L207.904 17.444C207.699 17.7427 207.326 18.1533 206.784 18.676C206.243 19.1987 205.711 19.6373 205.188 19.992C204.666 20.328 204.003 20.636 203.2 20.916C202.398 21.196 201.586 21.336 200.764 21.336ZM221.932 19.656C221.708 20.2347 221.354 20.692 220.868 21.028C220.402 21.364 219.842 21.532 219.188 21.532C218.554 21.532 217.592 21.14 216.304 20.356C215.035 19.572 214.018 19.068 213.252 18.844C212.748 19.516 212.179 20.076 211.544 20.524C210.91 20.972 210.471 21.196 210.228 21.196C210.042 21.196 209.668 20.7947 209.108 19.992C208.548 19.1707 208.268 18.5827 208.268 18.228C208.268 18.0227 208.558 17.7147 209.136 17.304C209.734 16.8933 210.359 16.6133 211.012 16.464C211.479 15.3253 211.964 13.6453 212.468 11.424C212.972 9.184 213.364 6.87867 213.644 4.508C213.644 4.20933 213.542 3.85467 213.336 3.444C213.15 3.01467 212.954 2.66933 212.748 2.408L212.468 2.016L212.552 1.596C213.672 1.27867 215.511 1.12 218.068 1.12C218.311 1.53067 218.432 2.156 218.432 2.996C218.432 3.836 218.19 5.08667 217.704 6.748C217.219 8.40933 216.547 10.4067 215.688 12.74C214.848 15.0547 214.363 16.4267 214.232 16.856C214.307 16.8747 214.54 16.94 214.932 17.052C215.324 17.164 215.576 17.2387 215.688 17.276C215.819 17.2947 216.062 17.3507 216.416 17.444C216.771 17.5187 217.051 17.5747 217.256 17.612C217.462 17.6307 217.732 17.6587 218.068 17.696C218.647 17.7893 219.188 17.836 219.692 17.836C220.215 17.836 220.588 17.7053 220.812 17.444L221.596 15.988L222.52 16.212C222.52 17.4253 222.324 18.5733 221.932 19.656Z" fill="#E6D6B5"/>
</svg>
