<svg width="189" height="28" viewBox="0 0 189 28" fill="none" xmlns="http://www.w3.org/2000/svg">
<path d="M6.448 21.336C4.712 21.336 3.27467 20.636 2.136 19.236C0.997333 17.8173 0.428 15.9693 0.428 13.692C0.428 11.4147 0.82 9.34267 1.604 7.476C2.388 5.59067 3.508 4.06 4.964 2.884C6.42 1.708 7.96933 1.12 9.612 1.12C11.2733 1.12 12.608 1.49333 13.616 2.24C14.6427 2.98667 15.156 3.88267 15.156 4.928C15.156 5.95467 14.848 6.832 14.232 7.56C13.6347 7.56 12.9627 7.42933 12.216 7.168C11.4693 6.90667 10.9093 6.58933 10.536 6.216L11.068 3.388C10.62 3.108 10.032 2.968 9.304 2.968C8.16533 2.968 7.15733 3.948 6.28 5.908C5.40267 7.84933 4.964 10.248 4.964 13.104C4.964 14.9893 5.272 16.3613 5.888 17.22C6.52267 18.06 7.288 18.48 8.184 18.48C9.65867 18.48 11.0773 17.7893 12.44 16.408L13.588 17.444C13.3827 17.7427 13.0093 18.1533 12.468 18.676C11.9267 19.1987 11.3947 19.6373 10.872 19.992C10.3493 20.328 9.68667 20.636 8.884 20.916C8.08133 21.196 7.26933 21.336 6.448 21.336ZM23.3598 9.408C23.3971 9.37067 23.4998 9.128 23.6678 8.68C24.5451 8.68 25.7211 8.94133 27.1958 9.464C26.7291 11.0133 26.3558 12.6373 26.0758 14.336C25.7958 16.016 25.6558 17.22 25.6558 17.948C25.6558 18.6573 25.7304 19.012 25.8798 19.012C25.9918 19.012 26.4024 18.8347 27.1118 18.48L27.4478 18.312L27.9518 19.292C27.7838 19.4413 27.5598 19.628 27.2798 19.852C27.0184 20.076 26.5144 20.384 25.7678 20.776C25.0211 21.1493 24.3491 21.336 23.7518 21.336C22.5944 21.336 21.9224 20.8133 21.7358 19.768C20.5411 20.8133 19.4584 21.336 18.4878 21.336C17.5358 21.336 16.7238 20.9627 16.0518 20.216C15.3984 19.4693 15.0718 18.2933 15.0718 16.688C15.0718 14.1867 15.5851 12.2173 16.6118 10.78C17.6384 9.324 18.8798 8.596 20.3358 8.596C21.3811 8.596 22.3891 8.86667 23.3598 9.408ZM20.1678 18.956C20.6158 18.956 21.1198 18.7787 21.6798 18.424C21.8104 15.792 22.2491 13.188 22.9958 10.612C22.4358 10.3693 21.9598 10.248 21.5678 10.248C20.8958 10.248 20.3171 10.9107 19.8318 12.236C19.3651 13.5427 19.1318 14.9893 19.1318 16.576C19.1318 18.1627 19.4771 18.956 20.1678 18.956ZM29.2249 21.084H28.6929C28.6929 20.2067 28.9542 18.5267 29.4769 16.044C30.0182 13.5613 30.2889 12.152 30.2889 11.816C30.2889 11.2 30.0276 10.5467 29.5049 9.856L29.2529 9.52L29.2809 9.156C30.2889 8.876 31.9036 8.736 34.1249 8.736C34.3862 9.09067 34.5169 9.66933 34.5169 10.472C36.1969 9.22133 37.5316 8.596 38.5209 8.596C39.7716 8.596 40.5089 9.24 40.7329 10.528C41.2369 10.1173 41.8902 9.69733 42.6929 9.268C43.5142 8.82 44.2422 8.596 44.8769 8.596C45.5302 8.596 46.0716 8.81067 46.5009 9.24C46.9302 9.65067 47.1449 10.2293 47.1449 10.976C47.1449 11.7227 46.9396 12.9547 46.5289 14.672C46.1182 16.3893 45.9129 17.5467 45.9129 18.144C45.9129 18.7227 45.9969 19.012 46.1649 19.012C46.2769 19.012 46.6596 18.8347 47.3129 18.48L47.6209 18.312L48.1249 19.292C47.6396 19.7773 46.9769 20.244 46.1369 20.692C45.3156 21.1213 44.5876 21.336 43.9529 21.336C42.5529 21.336 41.8529 20.5427 41.8529 18.956C41.8529 18.3773 42.0489 17.22 42.4409 15.484C42.8516 13.7293 43.0569 12.5907 43.0569 12.068C43.0569 11.5267 42.8982 11.256 42.5809 11.256C42.0396 11.256 41.4236 11.4613 40.7329 11.872C40.6956 12.2453 40.4342 13.5147 39.9489 15.68C39.4822 17.8453 39.2489 19.5253 39.2489 20.72C38.7076 20.9627 37.4382 21.084 35.4409 21.084C35.4036 20.8787 35.3849 20.384 35.3849 19.6C35.3849 18.816 35.5996 17.4813 36.0289 15.596C36.4769 13.7107 36.7009 12.516 36.7009 12.012C36.7009 11.508 36.5236 11.256 36.1689 11.256C35.6089 11.256 34.9929 11.48 34.3209 11.928C34.2836 12.096 34.0969 12.9173 33.7609 14.392C33.0889 17.3413 32.7529 19.4413 32.7529 20.692C32.0996 20.9533 30.9236 21.084 29.2249 21.084ZM48.2194 27.272C48.1261 27.048 48.0794 26.5533 48.0794 25.788C48.0794 25.0227 48.4434 22.9693 49.1714 19.628C49.8994 16.268 50.2634 13.6827 50.2634 11.872C50.2634 11.5173 50.1794 11.144 50.0114 10.752C49.8434 10.3413 49.6661 10.024 49.4794 9.8L49.2274 9.492L49.2554 9.128C50.1327 8.848 51.6821 8.708 53.9034 8.708C54.1087 9.1 54.2394 9.65067 54.2954 10.36C55.7327 9.184 56.9274 8.596 57.8794 8.596C58.8501 8.596 59.6247 8.99733 60.2034 9.8C60.8007 10.6027 61.0994 11.7787 61.0994 13.328C61.0994 16.0347 60.6047 18.0507 59.6154 19.376C58.6261 20.6827 57.3754 21.336 55.8634 21.336C55.0794 21.336 54.4261 21.224 53.9034 21L53.6234 20.888L53.8194 19.796C53.9874 19.8333 54.1834 19.852 54.4074 19.852C54.8927 19.852 55.3127 19.628 55.6674 19.18C56.0407 18.732 56.3207 18.1627 56.5074 17.472C56.8807 16.0907 57.0674 14.812 57.0674 13.636C57.0674 11.956 56.7221 11.116 56.0314 11.116C55.4901 11.116 54.9114 11.3307 54.2954 11.76C54.2207 13.0667 53.8381 15.3533 53.1474 18.62C52.4567 21.8867 52.1114 24.5187 52.1114 26.516C51.1034 26.9267 49.8061 27.1787 48.2194 27.272ZM62.5992 18.9C62.5992 18.0973 62.8418 16.7347 63.3272 14.812C63.8125 12.8707 64.0552 11.6853 64.0552 11.256C64.0552 10.808 63.7192 10.22 63.0472 9.492L63.0752 9.128C64.3445 8.86667 66.0152 8.736 68.0872 8.736C68.1805 8.97867 68.2272 9.41733 68.2272 10.052C68.2272 10.6867 67.9658 12.04 67.4432 14.112C66.9205 16.184 66.6592 17.472 66.6592 17.976C66.6592 18.48 66.8458 18.732 67.2192 18.732C67.7605 18.732 68.3858 18.536 69.0952 18.144C69.1698 17.696 69.3565 16.8373 69.6552 15.568C70.3272 12.5813 70.6632 10.444 70.6632 9.156C71.3165 8.89467 72.4925 8.764 74.1912 8.764H74.7232C74.7232 9.64133 74.4618 11.3587 73.9392 13.916C73.4165 16.4547 73.1552 17.948 73.1552 18.396C73.1552 18.8253 73.2485 19.04 73.4352 19.04C73.5472 19.04 74.0792 18.816 75.0312 18.368L75.5632 19.264C73.9018 20.6453 72.4458 21.336 71.1952 21.336C70.5978 21.336 70.0845 21.168 69.6552 20.832C69.2445 20.496 69.0112 20.0573 68.9552 19.516C67.4432 20.748 66.0712 21.364 64.8392 21.364C64.1858 21.364 63.6445 21.1493 63.2152 20.72C62.8045 20.2907 62.5992 19.684 62.5992 18.9ZM84.9998 17.332C84.9998 18.508 84.4771 19.4693 83.4318 20.216C82.4051 20.9627 81.2291 21.336 79.9038 21.336C78.5785 21.336 77.5238 21.056 76.7398 20.496C75.9745 19.936 75.5918 19.4413 75.5918 19.012C75.5918 18.7507 75.9185 18.3307 76.5718 17.752C77.2251 17.1547 77.7758 16.7907 78.2238 16.66C79.1571 17.3507 79.9225 18.4427 80.5198 19.936C81.2105 19.88 81.5558 19.5533 81.5558 18.956C81.5558 18.0973 80.7998 16.884 79.2878 15.316C77.7758 13.7293 77.0198 12.4693 77.0198 11.536C77.0198 10.6027 77.4398 9.884 78.2798 9.38C79.1198 8.85733 80.1278 8.596 81.3038 8.596C82.4985 8.596 83.3945 8.81067 83.9918 9.24C84.5891 9.65067 84.8878 10.22 84.8878 10.948C84.8878 11.6573 84.3185 12.6467 83.1798 13.916C83.3105 14.0467 83.4785 14.224 83.6838 14.448C83.8891 14.6533 84.1598 15.0547 84.4958 15.652C84.8318 16.2493 84.9998 16.8093 84.9998 17.332ZM82.3118 12.936C83.0958 12.264 83.4878 11.6013 83.4878 10.948C83.4878 10.2947 83.0398 9.968 82.1438 9.968C81.7145 9.968 81.3598 10.0613 81.0798 10.248C80.7998 10.416 80.6598 10.612 80.6598 10.836C80.6598 11.2467 81.0705 11.8253 81.8918 12.572L82.3118 12.936ZM97.6464 1.26L103.134 1.428L106.018 1.372C106.074 1.652 106.102 2.02533 106.102 2.492C106.102 2.95867 106.028 3.29467 105.878 3.5C105.748 3.70533 105.514 3.808 105.178 3.808C104.842 3.808 104.124 3.76133 103.022 3.668C101.94 3.57467 101.137 3.528 100.614 3.528L99.6064 3.584C99.5317 4.29333 99.0837 6.56133 98.2624 10.388C99.6811 10.2573 100.866 10.192 101.818 10.192C102.77 10.192 103.508 10.2667 104.03 10.416C103.993 11.2 103.825 11.872 103.526 12.432C102.724 12.264 101.772 12.18 100.67 12.18C99.5691 12.18 98.6357 12.236 97.8704 12.348C97.1797 15.7267 96.8344 18.2933 96.8344 20.048V20.524C96.1624 20.8973 94.7437 21.084 92.5784 21.084H92.2984C92.2984 19.8147 92.7277 17.1733 93.5864 13.16C94.4637 9.14667 94.9957 6.26267 95.1824 4.508C95.1824 4.20933 95.0891 3.85467 94.9024 3.444C94.7157 3.01467 94.5197 2.66933 94.3144 2.408L94.0344 2.016L94.1184 1.596C95.1264 1.39067 96.3024 1.27867 97.6464 1.26ZM113.457 9.408C113.495 9.37067 113.597 9.128 113.765 8.68C114.643 8.68 115.819 8.94133 117.293 9.464C116.827 11.0133 116.453 12.6373 116.173 14.336C115.893 16.016 115.753 17.22 115.753 17.948C115.753 18.6573 115.828 19.012 115.977 19.012C116.089 19.012 116.5 18.8347 117.209 18.48L117.545 18.312L118.049 19.292C117.881 19.4413 117.657 19.628 117.377 19.852C117.116 20.076 116.612 20.384 115.865 20.776C115.119 21.1493 114.447 21.336 113.849 21.336C112.692 21.336 112.02 20.8133 111.833 19.768C110.639 20.8133 109.556 21.336 108.585 21.336C107.633 21.336 106.821 20.9627 106.149 20.216C105.496 19.4693 105.169 18.2933 105.169 16.688C105.169 14.1867 105.683 12.2173 106.709 10.78C107.736 9.324 108.977 8.596 110.433 8.596C111.479 8.596 112.487 8.86667 113.457 9.408ZM110.265 18.956C110.713 18.956 111.217 18.7787 111.777 18.424C111.908 15.792 112.347 13.188 113.093 10.612C112.533 10.3693 112.057 10.248 111.665 10.248C110.993 10.248 110.415 10.9107 109.929 12.236C109.463 13.5427 109.229 14.9893 109.229 16.576C109.229 18.1627 109.575 18.956 110.265 18.956ZM125.007 9.996C124.26 9.996 123.663 10.6213 123.215 11.872C122.767 13.104 122.543 14.4293 122.543 15.848C122.543 18.088 123.233 19.208 124.615 19.208C125.063 19.208 125.539 19.1053 126.043 18.9C126.547 18.676 126.948 18.4613 127.247 18.256L127.667 17.92L128.311 18.788C128.161 18.9933 127.863 19.264 127.415 19.6C126.967 19.936 126.547 20.216 126.155 20.44C125.763 20.664 125.259 20.8693 124.643 21.056C124.027 21.2427 123.42 21.336 122.823 21.336C121.367 21.336 120.275 20.86 119.547 19.908C118.819 18.956 118.455 17.6773 118.455 16.072C118.455 13.8507 119.061 12.0493 120.275 10.668C121.507 9.28667 123.084 8.596 125.007 8.596C126.257 8.596 127.247 8.88533 127.975 9.464C128.721 10.024 129.095 10.724 129.095 11.564C129.095 12.3853 128.833 13.0947 128.311 13.692C127.844 13.692 127.303 13.5893 126.687 13.384C126.071 13.1787 125.604 12.9267 125.287 12.628L125.707 10.164C125.539 10.052 125.305 9.996 125.007 9.996ZM135.491 10.332C135.491 11.116 135.239 12.4693 134.735 14.392C134.231 16.296 133.979 17.5467 133.979 18.144C133.979 18.7227 134.063 19.012 134.231 19.012C134.343 19.012 134.773 18.8347 135.519 18.48L135.855 18.312L136.331 19.292C136.163 19.4413 135.939 19.628 135.659 19.852C135.379 20.076 134.857 20.384 134.091 20.776C133.326 21.1493 132.617 21.336 131.963 21.336C131.31 21.336 130.797 21.14 130.423 20.748C130.05 20.3373 129.863 19.796 129.863 19.124C129.863 18.4333 130.097 17.22 130.563 15.484C131.03 13.7293 131.263 12.5907 131.263 12.068C131.263 11.284 131.021 10.5467 130.535 9.856L130.283 9.52L130.311 9.156C131.301 8.876 132.906 8.736 135.127 8.736C135.37 9.016 135.491 9.548 135.491 10.332ZM132.299 5.684C131.926 5.31067 131.739 4.816 131.739 4.2C131.739 3.584 131.991 3.04267 132.495 2.576C133.018 2.10933 133.615 1.876 134.287 1.876C134.959 1.876 135.482 2.06267 135.855 2.436C136.229 2.80933 136.415 3.304 136.415 3.92C136.415 4.51733 136.145 5.04933 135.603 5.516C135.081 5.98267 134.493 6.216 133.839 6.216C133.186 6.216 132.673 6.03867 132.299 5.684ZM139.48 21.336C138.846 21.336 138.314 21.1213 137.884 20.692C137.474 20.2627 137.268 19.6653 137.268 18.9C137.268 18.116 137.726 15.6427 138.64 11.48C139.574 7.29867 140.04 4.284 140.04 2.436L139.872 1.204C141.328 0.699999 142.691 0.447999 143.96 0.447999C144.147 0.709333 144.24 1.16667 144.24 1.82C144.24 3.31333 143.764 6.20667 142.812 10.5C141.879 14.7747 141.412 17.2667 141.412 17.976C141.412 18.6667 141.496 19.012 141.664 19.012L143.624 18.312L144.128 19.292C143.494 19.796 142.719 20.2627 141.804 20.692C140.908 21.1213 140.134 21.336 139.48 21.336ZM150.558 10.332C150.558 11.116 150.306 12.4693 149.802 14.392C149.298 16.296 149.046 17.5467 149.046 18.144C149.046 18.7227 149.13 19.012 149.298 19.012C149.41 19.012 149.839 18.8347 150.586 18.48L150.922 18.312L151.398 19.292C151.23 19.4413 151.006 19.628 150.726 19.852C150.446 20.076 149.923 20.384 149.158 20.776C148.393 21.1493 147.683 21.336 147.03 21.336C146.377 21.336 145.863 21.14 145.49 20.748C145.117 20.3373 144.93 19.796 144.93 19.124C144.93 18.4333 145.163 17.22 145.63 15.484C146.097 13.7293 146.33 12.5907 146.33 12.068C146.33 11.284 146.087 10.5467 145.602 9.856L145.35 9.52L145.378 9.156C146.367 8.876 147.973 8.736 150.194 8.736C150.437 9.016 150.558 9.548 150.558 10.332ZM147.366 5.684C146.993 5.31067 146.806 4.816 146.806 4.2C146.806 3.584 147.058 3.04267 147.562 2.576C148.085 2.10933 148.682 1.876 149.354 1.876C150.026 1.876 150.549 2.06267 150.922 2.436C151.295 2.80933 151.482 3.304 151.482 3.92C151.482 4.51733 151.211 5.04933 150.67 5.516C150.147 5.98267 149.559 6.216 148.906 6.216C148.253 6.216 147.739 6.03867 147.366 5.684ZM161.155 8.932C161.117 9.39867 160.959 9.94 160.679 10.556C159.969 10.4813 159.297 10.444 158.663 10.444H158.159C157.3 14.6067 156.871 17.2013 156.871 18.228C156.871 18.7693 156.983 19.04 157.207 19.04C157.449 19.04 158.075 18.8067 159.083 18.34L159.587 19.264C157.925 20.6453 156.385 21.336 154.967 21.336C154.313 21.336 153.772 21.1307 153.343 20.72C152.932 20.3093 152.727 19.768 152.727 19.096C152.727 18.4053 152.801 17.6307 152.951 16.772C153.119 15.9133 153.343 14.868 153.623 13.636C153.903 12.3853 154.108 11.3773 154.239 10.612C153.548 10.668 153.035 10.724 152.699 10.78C152.661 10.556 152.643 10.2573 152.643 9.884C152.643 9.492 152.671 9.17467 152.727 8.932H154.491C154.64 7.924 154.715 6.972 154.715 6.076L154.687 5.208V5.124C156.143 4.62 157.515 4.368 158.803 4.368C158.877 4.74133 158.915 5.208 158.915 5.768C158.915 6.328 158.756 7.38267 158.439 8.932H161.155ZM166.718 10.332C166.718 11.116 166.466 12.4693 165.962 14.392C165.458 16.296 165.206 17.5467 165.206 18.144C165.206 18.7227 165.29 19.012 165.458 19.012C165.57 19.012 165.999 18.8347 166.746 18.48L167.082 18.312L167.558 19.292C167.39 19.4413 167.166 19.628 166.886 19.852C166.606 20.076 166.083 20.384 165.318 20.776C164.553 21.1493 163.843 21.336 163.19 21.336C162.537 21.336 162.023 21.14 161.65 20.748C161.277 20.3373 161.09 19.796 161.09 19.124C161.09 18.4333 161.323 17.22 161.79 15.484C162.257 13.7293 162.49 12.5907 162.49 12.068C162.49 11.284 162.247 10.5467 161.762 9.856L161.51 9.52L161.538 9.156C162.527 8.876 164.133 8.736 166.354 8.736C166.597 9.016 166.718 9.548 166.718 10.332ZM163.526 5.684C163.153 5.31067 162.966 4.816 162.966 4.2C162.966 3.584 163.218 3.04267 163.722 2.576C164.245 2.10933 164.842 1.876 165.514 1.876C166.186 1.876 166.709 2.06267 167.082 2.436C167.455 2.80933 167.642 3.304 167.642 3.92C167.642 4.51733 167.371 5.04933 166.83 5.516C166.307 5.98267 165.719 6.216 165.066 6.216C164.413 6.216 163.899 6.03867 163.526 5.684ZM168.439 16.156C168.439 13.8227 169.139 11.984 170.539 10.64C171.958 9.27733 173.563 8.596 175.355 8.596C176.456 8.596 177.362 8.86667 178.071 9.408C178.78 9.94933 179.135 10.6773 179.135 11.592C179.135 12.488 178.902 13.244 178.435 13.86C177.987 14.476 177.436 14.952 176.783 15.288C175.458 15.9413 174.244 16.352 173.143 16.52L172.471 16.604C172.602 18.3587 173.32 19.236 174.627 19.236C175.075 19.236 175.551 19.124 176.055 18.9C176.559 18.676 176.951 18.452 177.231 18.228L177.651 17.892L178.323 18.788C178.174 18.9933 177.875 19.264 177.427 19.6C176.979 19.936 176.559 20.216 176.167 20.44C175.084 21.0373 173.899 21.336 172.611 21.336C171.323 21.336 170.306 20.8787 169.559 19.964C168.812 19.0493 168.439 17.78 168.439 16.156ZM172.443 15.232C173.395 15.064 174.151 14.6627 174.711 14.028C175.271 13.3933 175.551 12.572 175.551 11.564C175.551 10.556 175.252 10.052 174.655 10.052C173.946 10.052 173.395 10.6587 173.003 11.872C172.63 13.0667 172.443 14.1867 172.443 15.232ZM188.66 17.332C188.66 18.508 188.137 19.4693 187.092 20.216C186.065 20.9627 184.889 21.336 183.564 21.336C182.239 21.336 181.184 21.056 180.4 20.496C179.635 19.936 179.252 19.4413 179.252 19.012C179.252 18.7507 179.579 18.3307 180.232 17.752C180.885 17.1547 181.436 16.7907 181.884 16.66C182.817 17.3507 183.583 18.4427 184.18 19.936C184.871 19.88 185.216 19.5533 185.216 18.956C185.216 18.0973 184.46 16.884 182.948 15.316C181.436 13.7293 180.68 12.4693 180.68 11.536C180.68 10.6027 181.1 9.884 181.94 9.38C182.78 8.85733 183.788 8.596 184.964 8.596C186.159 8.596 187.055 8.81067 187.652 9.24C188.249 9.65067 188.548 10.22 188.548 10.948C188.548 11.6573 187.979 12.6467 186.84 13.916C186.971 14.0467 187.139 14.224 187.344 14.448C187.549 14.6533 187.82 15.0547 188.156 15.652C188.492 16.2493 188.66 16.8093 188.66 17.332ZM185.972 12.936C186.756 12.264 187.148 11.6013 187.148 10.948C187.148 10.2947 186.7 9.968 185.804 9.968C185.375 9.968 185.02 10.0613 184.74 10.248C184.46 10.416 184.32 10.612 184.32 10.836C184.32 11.2467 184.731 11.8253 185.552 12.572L185.972 12.936Z" fill="#E6D6B5"/>
</svg>
