<svg width="138" height="27" viewBox="0 0 138 27" fill="none" xmlns="http://www.w3.org/2000/svg">
<path d="M6.448 20.336C4.712 20.336 3.27467 19.636 2.136 18.236C0.997333 16.8173 0.428 14.9693 0.428 12.692C0.428 10.4147 0.82 8.34267 1.604 6.476C2.388 4.59067 3.508 3.06 4.964 1.884C6.42 0.707999 7.96933 0.119999 9.612 0.119999C11.2733 0.119999 12.608 0.493332 13.616 1.24C14.6427 1.98667 15.156 2.88267 15.156 3.928C15.156 4.95467 14.848 5.832 14.232 6.56C13.6347 6.56 12.9627 6.42933 12.216 6.168C11.4693 5.90667 10.9093 5.58933 10.536 5.216L11.068 2.388C10.62 2.108 10.032 1.968 9.304 1.968C8.16533 1.968 7.15733 2.948 6.28 4.908C5.40267 6.84933 4.964 9.248 4.964 12.104C4.964 13.9893 5.272 15.3613 5.888 16.22C6.52267 17.06 7.288 17.48 8.184 17.48C9.65867 17.48 11.0773 16.7893 12.44 15.408L13.588 16.444C13.3827 16.7427 13.0093 17.1533 12.468 17.676C11.9267 18.1987 11.3947 18.6373 10.872 18.992C10.3493 19.328 9.68667 19.636 8.884 19.916C8.08133 20.196 7.26933 20.336 6.448 20.336ZM18.9358 20.336C17.6478 20.336 16.6398 19.888 15.9118 18.992C15.1838 18.0773 14.8198 16.808 14.8198 15.184C14.8198 13.112 15.3704 11.3293 16.4718 9.836C17.5918 8.34267 19.1318 7.596 21.0918 7.596L22.0998 7.652C22.4171 7.484 22.7718 7.4 23.1638 7.4C24.6384 7.4 25.3758 8.79067 25.3758 11.572C26.1411 11.5347 26.9158 11.432 27.6998 11.264L28.1478 11.152L28.3158 12.244C27.6998 12.5053 26.8691 12.7387 25.8238 12.944L25.2638 13.056C24.9091 15.016 24.1904 16.724 23.1078 18.18C22.0251 19.6173 20.6344 20.336 18.9358 20.336ZM20.4478 17.928C21.2318 17.928 21.9318 17.424 22.5478 16.416C23.1824 15.408 23.6211 14.344 23.8638 13.224C21.8664 13.224 20.8678 12.4773 20.8678 10.984C20.8678 10.3867 20.9891 9.82667 21.2318 9.304L21.3718 9.024C21.2971 8.98667 21.2038 8.968 21.0918 8.968C20.9798 8.968 20.8958 8.98667 20.8398 9.024C20.3731 9.32267 19.9344 10.0227 19.5238 11.124C19.1131 12.2253 18.9078 13.4853 18.9078 14.904C18.9078 16.92 19.4211 17.928 20.4478 17.928ZM26.7366 20.084H26.2046C26.2046 19.2067 26.466 17.5267 26.9886 15.044C27.53 12.5613 27.8006 11.152 27.8006 10.816C27.8006 10.2 27.5393 9.54667 27.0166 8.856L26.7646 8.52L26.7926 8.156C27.8006 7.876 29.4153 7.736 31.6366 7.736C31.898 8.09067 32.0286 8.66933 32.0286 9.472C33.7086 8.22133 35.0433 7.596 36.0326 7.596C37.2833 7.596 38.0206 8.24 38.2446 9.528C38.7486 9.11733 39.402 8.69733 40.2046 8.268C41.026 7.82 41.754 7.596 42.3886 7.596C43.042 7.596 43.5833 7.81067 44.0126 8.24C44.442 8.65067 44.6566 9.22933 44.6566 9.976C44.6566 10.7227 44.4513 11.9547 44.0406 13.672C43.63 15.3893 43.4246 16.5467 43.4246 17.144C43.4246 17.7227 43.5086 18.012 43.6766 18.012C43.7886 18.012 44.1713 17.8347 44.8246 17.48L45.1326 17.312L45.6366 18.292C45.1513 18.7773 44.4886 19.244 43.6486 19.692C42.8273 20.1213 42.0993 20.336 41.4646 20.336C40.0646 20.336 39.3646 19.5427 39.3646 17.956C39.3646 17.3773 39.5606 16.22 39.9526 14.484C40.3633 12.7293 40.5686 11.5907 40.5686 11.068C40.5686 10.5267 40.41 10.256 40.0926 10.256C39.5513 10.256 38.9353 10.4613 38.2446 10.872C38.2073 11.2453 37.946 12.5147 37.4606 14.68C36.994 16.8453 36.7606 18.5253 36.7606 19.72C36.2193 19.9627 34.95 20.084 32.9526 20.084C32.9153 19.8787 32.8966 19.384 32.8966 18.6C32.8966 17.816 33.1113 16.4813 33.5406 14.596C33.9886 12.7107 34.2126 11.516 34.2126 11.012C34.2126 10.508 34.0353 10.256 33.6806 10.256C33.1206 10.256 32.5046 10.48 31.8326 10.928C31.7953 11.096 31.6086 11.9173 31.2726 13.392C30.6006 16.3413 30.2646 18.4413 30.2646 19.692C29.6113 19.9533 28.4353 20.084 26.7366 20.084ZM45.7311 26.272C45.6378 26.048 45.5911 25.5533 45.5911 24.788C45.5911 24.0227 45.9551 21.9693 46.6831 18.628C47.4111 15.268 47.7751 12.6827 47.7751 10.872C47.7751 10.5173 47.6911 10.144 47.5231 9.752C47.3551 9.34133 47.1778 9.024 46.9911 8.8L46.7391 8.492L46.7671 8.128C47.6445 7.848 49.1938 7.708 51.4151 7.708C51.6205 8.1 51.7511 8.65067 51.8071 9.36C53.2445 8.184 54.4391 7.596 55.3911 7.596C56.3618 7.596 57.1365 7.99733 57.7151 8.8C58.3125 9.60267 58.6111 10.7787 58.6111 12.328C58.6111 15.0347 58.1165 17.0507 57.1271 18.376C56.1378 19.6827 54.8871 20.336 53.3751 20.336C52.5911 20.336 51.9378 20.224 51.4151 20L51.1351 19.888L51.3311 18.796C51.4991 18.8333 51.6951 18.852 51.9191 18.852C52.4045 18.852 52.8245 18.628 53.1791 18.18C53.5525 17.732 53.8325 17.1627 54.0191 16.472C54.3925 15.0907 54.5791 13.812 54.5791 12.636C54.5791 10.956 54.2338 10.116 53.5431 10.116C53.0018 10.116 52.4231 10.3307 51.8071 10.76C51.7325 12.0667 51.3498 14.3533 50.6591 17.62C49.9685 20.8867 49.6231 23.5187 49.6231 25.516C48.6151 25.9267 47.3178 26.1787 45.7311 26.272ZM59.7749 15.156C59.7749 12.8227 60.4749 10.984 61.8749 9.64C63.2935 8.27733 64.8989 7.596 66.6909 7.596C67.7922 7.596 68.6975 7.86667 69.4069 8.408C70.1162 8.94933 70.4709 9.67733 70.4709 10.592C70.4709 11.488 70.2375 12.244 69.7709 12.86C69.3229 13.476 68.7722 13.952 68.1189 14.288C66.7935 14.9413 65.5802 15.352 64.4789 15.52L63.8069 15.604C63.9375 17.3587 64.6562 18.236 65.9629 18.236C66.4109 18.236 66.8869 18.124 67.3909 17.9C67.8949 17.676 68.2869 17.452 68.5669 17.228L68.9869 16.892L69.6589 17.788C69.5095 17.9933 69.2109 18.264 68.7629 18.6C68.3149 18.936 67.8949 19.216 67.5029 19.44C66.4202 20.0373 65.2349 20.336 63.9469 20.336C62.6589 20.336 61.6415 19.8787 60.8949 18.964C60.1482 18.0493 59.7749 16.78 59.7749 15.156ZM63.7789 14.232C64.7309 14.064 65.4869 13.6627 66.0469 13.028C66.6069 12.3933 66.8869 11.572 66.8869 10.564C66.8869 9.556 66.5882 9.052 65.9909 9.052C65.2815 9.052 64.7309 9.65867 64.3389 10.872C63.9655 12.0667 63.7789 13.1867 63.7789 14.232ZM79.8345 7.932C79.7971 8.39867 79.6385 8.94 79.3585 9.556C78.6491 9.48133 77.9771 9.444 77.3425 9.444H76.8385C75.9798 13.6067 75.5505 16.2013 75.5505 17.228C75.5505 17.7693 75.6625 18.04 75.8865 18.04C76.1291 18.04 76.7545 17.8067 77.7625 17.34L78.2665 18.264C76.6051 19.6453 75.0651 20.336 73.6465 20.336C72.9931 20.336 72.4518 20.1307 72.0225 19.72C71.6118 19.3093 71.4065 18.768 71.4065 18.096C71.4065 17.4053 71.4811 16.6307 71.6305 15.772C71.7985 14.9133 72.0225 13.868 72.3025 12.636C72.5825 11.3853 72.7878 10.3773 72.9185 9.612C72.2278 9.668 71.7145 9.724 71.3785 9.78C71.3411 9.556 71.3225 9.25733 71.3225 8.884C71.3225 8.492 71.3505 8.17467 71.4065 7.932H73.1705C73.3198 6.924 73.3945 5.972 73.3945 5.076L73.3665 4.208V4.124C74.8225 3.62 76.1945 3.368 77.4825 3.368C77.5571 3.74133 77.5945 4.208 77.5945 4.768C77.5945 5.328 77.4358 6.38267 77.1185 7.932H79.8345ZM85.3977 9.332C85.3977 10.116 85.1457 11.4693 84.6417 13.392C84.1377 15.296 83.8857 16.5467 83.8857 17.144C83.8857 17.7227 83.9697 18.012 84.1377 18.012C84.2497 18.012 84.6791 17.8347 85.4257 17.48L85.7617 17.312L86.2377 18.292C86.0697 18.4413 85.8457 18.628 85.5657 18.852C85.2857 19.076 84.7631 19.384 83.9977 19.776C83.2324 20.1493 82.5231 20.336 81.8697 20.336C81.2164 20.336 80.7031 20.14 80.3297 19.748C79.9564 19.3373 79.7697 18.796 79.7697 18.124C79.7697 17.4333 80.0031 16.22 80.4697 14.484C80.9364 12.7293 81.1697 11.5907 81.1697 11.068C81.1697 10.284 80.9271 9.54667 80.4417 8.856L80.1897 8.52L80.2177 8.156C81.2071 7.876 82.8124 7.736 85.0337 7.736C85.2764 8.016 85.3977 8.548 85.3977 9.332ZM82.2057 4.684C81.8324 4.31067 81.6457 3.816 81.6457 3.2C81.6457 2.584 81.8977 2.04267 82.4017 1.576C82.9244 1.10933 83.5217 0.875999 84.1937 0.875999C84.8657 0.875999 85.3884 1.06267 85.7617 1.436C86.1351 1.80933 86.3217 2.304 86.3217 2.92C86.3217 3.51733 86.0511 4.04933 85.5097 4.516C84.9871 4.98267 84.3991 5.216 83.7457 5.216C83.0924 5.216 82.5791 5.03867 82.2057 4.684ZM95.9946 7.932C95.9573 8.39867 95.7986 8.94 95.5186 9.556C94.8093 9.48133 94.1373 9.444 93.5026 9.444H92.9986C92.14 13.6067 91.7106 16.2013 91.7106 17.228C91.7106 17.7693 91.8226 18.04 92.0466 18.04C92.2893 18.04 92.9146 17.8067 93.9226 17.34L94.4266 18.264C92.7653 19.6453 91.2253 20.336 89.8066 20.336C89.1533 20.336 88.612 20.1307 88.1826 19.72C87.772 19.3093 87.5666 18.768 87.5666 18.096C87.5666 17.4053 87.6413 16.6307 87.7906 15.772C87.9586 14.9133 88.1826 13.868 88.4626 12.636C88.7426 11.3853 88.948 10.3773 89.0786 9.612C88.388 9.668 87.8746 9.724 87.5386 9.78C87.5013 9.556 87.4826 9.25733 87.4826 8.884C87.4826 8.492 87.5106 8.17467 87.5666 7.932H89.3306C89.48 6.924 89.5546 5.972 89.5546 5.076L89.5266 4.208V4.124C90.9826 3.62 92.3546 3.368 93.6426 3.368C93.7173 3.74133 93.7546 4.208 93.7546 4.768C93.7546 5.328 93.596 6.38267 93.2786 7.932H95.9946ZM101.558 9.332C101.558 10.116 101.306 11.4693 100.802 13.392C100.298 15.296 100.046 16.5467 100.046 17.144C100.046 17.7227 100.13 18.012 100.298 18.012C100.41 18.012 100.839 17.8347 101.586 17.48L101.922 17.312L102.398 18.292C102.23 18.4413 102.006 18.628 101.726 18.852C101.446 19.076 100.923 19.384 100.158 19.776C99.3925 20.1493 98.6832 20.336 98.0299 20.336C97.3765 20.336 96.8632 20.14 96.4899 19.748C96.1165 19.3373 95.9299 18.796 95.9299 18.124C95.9299 17.4333 96.1632 16.22 96.6299 14.484C97.0965 12.7293 97.3299 11.5907 97.3299 11.068C97.3299 10.284 97.0872 9.54667 96.6019 8.856L96.3499 8.52L96.3779 8.156C97.3672 7.876 98.9725 7.736 101.194 7.736C101.437 8.016 101.558 8.548 101.558 9.332ZM98.3659 4.684C97.9925 4.31067 97.8059 3.816 97.8059 3.2C97.8059 2.584 98.0579 2.04267 98.5619 1.576C99.0845 1.10933 99.6819 0.875999 100.354 0.875999C101.026 0.875999 101.549 1.06267 101.922 1.436C102.295 1.80933 102.482 2.304 102.482 2.92C102.482 3.51733 102.211 4.04933 101.67 4.516C101.147 4.98267 100.559 5.216 99.9059 5.216C99.2525 5.216 98.7392 5.03867 98.3659 4.684ZM107.311 20.336C106.023 20.336 105.015 19.888 104.287 18.992C103.559 18.0773 103.195 16.808 103.195 15.184C103.195 13.112 103.745 11.3293 104.847 9.836C105.967 8.34267 107.507 7.596 109.467 7.596L110.475 7.652C110.792 7.484 111.147 7.4 111.539 7.4C113.013 7.4 113.751 8.79067 113.751 11.572C114.516 11.5347 115.291 11.432 116.075 11.264L116.523 11.152L116.691 12.244C116.075 12.5053 115.244 12.7387 114.199 12.944L113.639 13.056C113.284 15.016 112.565 16.724 111.483 18.18C110.4 19.6173 109.009 20.336 107.311 20.336ZM108.823 17.928C109.607 17.928 110.307 17.424 110.923 16.416C111.557 15.408 111.996 14.344 112.239 13.224C110.241 13.224 109.243 12.4773 109.243 10.984C109.243 10.3867 109.364 9.82667 109.607 9.304L109.747 9.024C109.672 8.98667 109.579 8.968 109.467 8.968C109.355 8.968 109.271 8.98667 109.215 9.024C108.748 9.32267 108.309 10.0227 107.899 11.124C107.488 12.2253 107.283 13.4853 107.283 14.904C107.283 16.92 107.796 17.928 108.823 17.928ZM115.194 20.084H114.662C114.662 19.2067 114.923 17.5267 115.446 15.044C115.987 12.5613 116.258 11.152 116.258 10.816C116.258 10.2 115.996 9.54667 115.474 8.856L115.222 8.52L115.25 8.156C116.258 7.876 117.872 7.736 120.094 7.736C120.336 8.05333 120.467 8.632 120.486 9.472C122.11 8.22133 123.482 7.596 124.602 7.596C125.274 7.596 125.806 7.82933 126.198 8.296C126.608 8.76267 126.814 9.35067 126.814 10.06C126.814 10.7507 126.599 11.9547 126.17 13.672C125.74 15.3893 125.526 16.5467 125.526 17.144C125.526 17.7227 125.6 18.012 125.75 18.012C125.862 18.012 126.254 17.8347 126.926 17.48L127.262 17.312L127.766 18.292C127.598 18.4413 127.374 18.628 127.094 18.852C126.814 19.076 126.291 19.384 125.526 19.776C124.779 20.1493 124.107 20.336 123.51 20.336C122.147 20.336 121.466 19.5613 121.466 18.012C121.466 17.3587 121.671 16.1547 122.082 14.4C122.511 12.6453 122.726 11.516 122.726 11.012C122.726 10.508 122.567 10.256 122.25 10.256C121.708 10.256 121.046 10.4893 120.262 10.956C120.206 11.2733 120.019 12.1133 119.702 13.476C119.048 16.4067 118.722 18.4787 118.722 19.692C118.068 19.9533 116.892 20.084 115.194 20.084ZM137.308 16.332C137.308 17.508 136.786 18.4693 135.74 19.216C134.714 19.9627 133.538 20.336 132.212 20.336C130.887 20.336 129.832 20.056 129.048 19.496C128.283 18.936 127.9 18.4413 127.9 18.012C127.9 17.7507 128.227 17.3307 128.88 16.752C129.534 16.1547 130.084 15.7907 130.532 15.66C131.466 16.3507 132.231 17.4427 132.828 18.936C133.519 18.88 133.864 18.5533 133.864 17.956C133.864 17.0973 133.108 15.884 131.596 14.316C130.084 12.7293 129.328 11.4693 129.328 10.536C129.328 9.60267 129.748 8.884 130.588 8.38C131.428 7.85733 132.436 7.596 133.612 7.596C134.807 7.596 135.703 7.81067 136.3 8.24C136.898 8.65067 137.196 9.22 137.196 9.948C137.196 10.6573 136.627 11.6467 135.488 12.916C135.619 13.0467 135.787 13.224 135.992 13.448C136.198 13.6533 136.468 14.0547 136.804 14.652C137.14 15.2493 137.308 15.8093 137.308 16.332ZM134.62 11.936C135.404 11.264 135.796 10.6013 135.796 9.948C135.796 9.29467 135.348 8.968 134.452 8.968C134.023 8.968 133.668 9.06133 133.388 9.248C133.108 9.416 132.968 9.612 132.968 9.836C132.968 10.2467 133.379 10.8253 134.2 11.572L134.62 11.936Z" fill="#E6D6B5"/>
</svg>
