<svg width="1068" height="542" viewBox="0 0 1068 542" fill="none" xmlns="http://www.w3.org/2000/svg">
<path d="M1067.97 299.385V503.205C1068.01 503.429 1068.01 503.66 1067.95 503.881C1067.89 504.103 1067.79 504.308 1067.64 504.484C1067.5 504.66 1067.32 504.802 1067.11 504.899C1066.9 504.996 1066.68 505.047 1066.45 505.047C1066.22 505.047 1066 504.996 1065.79 504.899C1065.58 504.802 1065.4 504.66 1065.26 504.484C1065.11 504.308 1065.01 504.103 1064.95 503.881C1064.89 503.66 1064.89 503.429 1064.93 503.205V299.385C1064.89 299.16 1064.89 298.93 1064.95 298.708C1065.01 298.487 1065.11 298.281 1065.26 298.105C1065.4 297.93 1065.58 297.788 1065.79 297.691C1066 297.593 1066.22 297.543 1066.45 297.543C1066.68 297.543 1066.9 297.593 1067.11 297.691C1067.32 297.788 1067.5 297.93 1067.64 298.105C1067.79 298.281 1067.89 298.487 1067.95 298.708C1068.01 298.93 1068.01 299.16 1067.97 299.385Z" fill="#E6D6B5"/>
<path d="M543.025 532.435C543.027 532.639 542.99 532.843 542.914 533.033C542.838 533.223 542.725 533.396 542.582 533.542L534.835 541.292C534.69 541.439 534.518 541.556 534.328 541.636C534.138 541.716 533.934 541.757 533.728 541.757C533.522 541.757 533.318 541.716 533.128 541.636C532.938 541.556 532.765 541.439 532.621 541.292L524.929 533.542C524.784 533.402 524.668 533.235 524.589 533.049C524.509 532.864 524.469 532.664 524.469 532.462C524.469 532.261 524.509 532.061 524.589 531.875C524.668 531.69 524.784 531.522 524.929 531.383L532.621 523.633C532.765 523.486 532.938 523.369 533.128 523.289C533.318 523.209 533.522 523.168 533.728 523.168C533.934 523.168 534.138 523.209 534.328 523.289C534.518 523.369 534.69 523.486 534.835 523.633L542.582 531.383C542.863 531.661 543.022 532.039 543.025 532.435ZM533.728 537.97L539.262 532.435L533.728 526.899L528.194 532.435L533.728 537.97Z" fill="#E6D6B5"/>
<path d="M543.025 9.26721C543.027 9.47185 542.99 9.67504 542.914 9.86506C542.838 10.0551 542.725 10.2281 542.582 10.3743L534.835 18.1242C534.69 18.2715 534.518 18.3884 534.328 18.4683C534.138 18.5482 533.934 18.5894 533.728 18.5894C533.522 18.5894 533.318 18.5482 533.128 18.4683C532.938 18.3884 532.765 18.2715 532.621 18.1242L524.929 10.3743C524.784 10.2348 524.668 10.0672 524.589 9.8817C524.509 9.69619 524.469 9.49663 524.469 9.29491C524.469 9.0932 524.509 8.89355 524.589 8.70804C524.668 8.52253 524.784 8.35495 524.929 8.21543L532.621 0.46563C532.765 0.318338 532.938 0.201311 533.128 0.121428C533.318 0.0415459 533.522 0.000387192 533.728 0.000387192C533.934 0.000387192 534.138 0.0415459 534.328 0.121428C534.518 0.201311 534.69 0.318338 534.835 0.46563L542.582 8.21543C542.863 8.49365 543.022 8.87185 543.025 9.26721ZM533.728 14.8028L539.262 9.26721L533.728 3.73161L528.194 9.26721L533.728 14.8028Z" fill="#E6D6B5"/>
<path d="M1030.95 540.295C1030.94 540.701 1030.77 541.088 1030.48 541.375C1030.2 541.663 1029.81 541.831 1029.4 541.845H914.414C914.003 541.845 913.609 541.681 913.318 541.391C913.027 541.1 912.864 540.706 912.864 540.295C912.864 539.884 913.027 539.489 913.318 539.199C913.609 538.908 914.003 538.745 914.414 538.745H1029.51C1029.9 538.785 1030.26 538.964 1030.52 539.249C1030.79 539.534 1030.94 539.906 1030.95 540.295Z" fill="#E6D6B5"/>
<path d="M1052.75 299.388V491.529C1052.8 491.753 1052.79 491.984 1052.73 492.205C1052.68 492.426 1052.57 492.632 1052.43 492.808C1052.28 492.984 1052.1 493.125 1051.89 493.222C1051.68 493.32 1051.46 493.37 1051.23 493.37C1051 493.37 1050.78 493.32 1050.57 493.222C1050.36 493.125 1050.18 492.984 1050.04 492.808C1049.89 492.632 1049.79 492.426 1049.73 492.205C1049.67 491.984 1049.67 491.753 1049.71 491.529V299.388C1049.67 299.164 1049.67 298.933 1049.73 298.712C1049.79 298.491 1049.89 298.285 1050.04 298.109C1050.18 297.933 1050.36 297.791 1050.57 297.694C1050.78 297.597 1051 297.546 1051.23 297.546C1051.46 297.546 1051.68 297.597 1051.89 297.694C1052.1 297.791 1052.28 297.933 1052.43 298.109C1052.57 298.285 1052.68 298.491 1052.73 298.712C1052.79 298.933 1052.8 299.164 1052.75 299.388Z" fill="#E6D6B5"/>
<path d="M1019.55 524.851C1019.54 525.258 1019.37 525.644 1019.08 525.932C1018.8 526.219 1018.41 526.387 1018 526.401H914.414C914.007 526.387 913.621 526.219 913.333 525.932C913.046 525.644 912.878 525.258 912.864 524.851C912.864 524.44 913.027 524.046 913.318 523.755C913.609 523.464 914.003 523.301 914.414 523.301H1017.84C1018.06 523.278 1018.27 523.3 1018.48 523.368C1018.69 523.435 1018.88 523.545 1019.04 523.692C1019.2 523.838 1019.33 524.017 1019.42 524.217C1019.51 524.417 1019.55 524.633 1019.55 524.851Z" fill="#E6D6B5"/>
<path d="M1067.97 487.597C1067.97 487.896 1067.87 488.187 1067.71 488.434C1067.54 488.682 1067.3 488.876 1067.03 488.992C1066.75 489.109 1066.45 489.144 1066.16 489.093C1065.86 489.042 1065.59 488.907 1065.37 488.704L1049.93 473.26C1049.79 473.116 1049.67 472.943 1049.59 472.753C1049.52 472.562 1049.48 472.358 1049.49 472.153V270.823C1049.45 270.599 1049.45 270.368 1049.51 270.147C1049.57 269.926 1049.67 269.72 1049.82 269.544C1049.96 269.368 1050.14 269.227 1050.35 269.129C1050.56 269.032 1050.78 268.982 1051.01 268.982C1051.24 268.982 1051.46 269.032 1051.67 269.129C1051.88 269.227 1052.06 269.368 1052.2 269.544C1052.35 269.72 1052.45 269.926 1052.51 270.147C1052.57 270.368 1052.57 270.599 1052.53 270.823V471.655L1067.53 486.656C1067.78 486.907 1067.94 487.241 1067.97 487.597Z" fill="#E6D6B5"/>
<path d="M1067.97 299.386C1067.98 299.591 1067.94 299.795 1067.87 299.986C1067.79 300.176 1067.68 300.349 1067.53 300.493C1067.23 300.761 1066.85 300.91 1066.45 300.91C1066.05 300.91 1065.67 300.761 1065.37 300.493L1036.71 271.819C1036.56 271.674 1036.44 271.502 1036.36 271.312C1036.28 271.122 1036.24 270.918 1036.24 270.712C1036.24 270.505 1036.28 270.301 1036.36 270.111C1036.44 269.921 1036.56 269.749 1036.71 269.604C1036.85 269.459 1037.01 269.343 1037.2 269.264C1037.39 269.184 1037.58 269.144 1037.79 269.144C1037.99 269.144 1038.19 269.184 1038.37 269.264C1038.56 269.343 1038.73 269.459 1038.87 269.604L1067.53 298.279C1067.68 298.423 1067.79 298.596 1067.87 298.786C1067.94 298.977 1067.98 299.181 1067.97 299.386Z" fill="#E6D6B5"/>
<path d="M1067.97 503.206C1067.98 503.407 1067.95 503.607 1067.87 503.795C1067.8 503.983 1067.69 504.154 1067.55 504.299C1067.41 504.444 1067.25 504.559 1067.06 504.637C1066.88 504.716 1066.68 504.756 1066.48 504.756C1057.06 504.771 1048.03 508.52 1041.37 515.181C1034.71 521.843 1030.97 530.874 1030.95 540.295C1030.94 540.701 1030.77 541.088 1030.48 541.375C1030.19 541.663 1029.81 541.831 1029.4 541.845C1028.99 541.845 1028.6 541.681 1028.31 541.391C1028.02 541.1 1027.85 540.706 1027.85 540.295C1027.85 530.018 1031.93 520.162 1039.2 512.895C1046.46 505.628 1056.31 501.546 1066.59 501.546C1066.99 501.588 1067.36 501.785 1067.62 502.095C1067.88 502.405 1068 502.804 1067.97 503.206Z" fill="#E6D6B5"/>
<path d="M1052.75 491.527C1052.75 491.938 1052.59 492.332 1052.3 492.623C1052.01 492.913 1051.61 493.077 1051.2 493.077C1042.8 493.106 1034.75 496.466 1028.82 502.422C1022.88 508.378 1019.55 516.443 1019.55 524.851C1019.54 525.258 1019.37 525.644 1019.08 525.932C1018.79 526.219 1018.41 526.387 1018 526.401C1017.59 526.401 1017.2 526.238 1016.91 525.947C1016.62 525.656 1016.45 525.262 1016.45 524.851C1016.45 515.611 1020.12 506.749 1026.64 500.211C1033.17 493.672 1042.02 489.991 1051.26 489.977C1051.66 489.991 1052.04 490.161 1052.32 490.45C1052.6 490.739 1052.75 491.125 1052.75 491.527Z" fill="#E6D6B5"/>
<path d="M923.598 532.544C923.601 532.749 923.563 532.952 923.487 533.142C923.411 533.332 923.298 533.505 923.155 533.651L915.408 541.401C915.264 541.548 915.091 541.665 914.901 541.745C914.711 541.825 914.507 541.866 914.301 541.866C914.095 541.866 913.891 541.825 913.701 541.745C913.511 541.665 913.339 541.548 913.194 541.401L905.503 533.651C905.357 533.512 905.241 533.344 905.162 533.159C905.083 532.973 905.042 532.773 905.042 532.572C905.042 532.37 905.083 532.17 905.162 531.985C905.241 531.799 905.357 531.632 905.503 531.492L913.194 523.742C913.339 523.595 913.511 523.478 913.701 523.398C913.891 523.318 914.095 523.277 914.301 523.277C914.507 523.277 914.711 523.318 914.901 523.398C915.091 523.478 915.264 523.595 915.408 523.742L923.155 531.492C923.436 531.771 923.595 532.149 923.598 532.544ZM914.301 538.08L919.835 532.544L914.301 527.008L908.768 532.544L914.301 538.08Z" fill="#E6D6B5"/>
<path d="M737.767 532.677C737.77 532.881 737.732 533.085 737.656 533.275C737.58 533.465 737.467 533.638 737.324 533.784L729.577 541.534C729.433 541.681 729.26 541.798 729.07 541.878C728.88 541.958 728.676 541.999 728.47 541.999C728.264 541.999 728.06 541.958 727.87 541.878C727.68 541.798 727.508 541.681 727.363 541.534L719.672 533.784C719.526 533.644 719.41 533.477 719.331 533.291C719.252 533.106 719.211 532.906 719.211 532.705C719.211 532.503 719.252 532.303 719.331 532.118C719.41 531.932 719.526 531.765 719.672 531.625L727.363 523.875C727.508 523.728 727.68 523.611 727.87 523.531C728.06 523.451 728.264 523.41 728.47 523.41C728.676 523.41 728.88 523.451 729.07 523.531C729.26 523.611 729.433 523.728 729.577 523.875L737.324 531.625C737.605 531.903 737.764 532.281 737.767 532.677ZM728.47 538.212L734.004 532.677L728.47 527.141L722.936 532.677L728.47 538.212Z" fill="#E6D6B5"/>
<path d="M908.159 532.544C908.166 532.754 908.124 532.963 908.038 533.155C907.952 533.347 907.823 533.517 907.661 533.651L899.97 541.401C899.825 541.548 899.653 541.665 899.463 541.745C899.273 541.825 899.069 541.866 898.863 541.866C898.657 541.866 898.453 541.825 898.263 541.745C898.073 541.665 897.9 541.548 897.756 541.401L890.064 533.651C889.919 533.512 889.803 533.344 889.723 533.159C889.644 532.973 889.604 532.773 889.604 532.572C889.604 532.37 889.644 532.17 889.723 531.985C889.803 531.799 889.919 531.632 890.064 531.492L897.756 523.742C897.9 523.595 898.073 523.478 898.263 523.398C898.453 523.318 898.657 523.277 898.863 523.277C899.069 523.277 899.273 523.318 899.463 523.398C899.653 523.478 899.825 523.595 899.97 523.742L907.661 531.492C907.816 531.621 907.94 531.782 908.026 531.963C908.112 532.145 908.158 532.343 908.159 532.544ZM898.863 538.08L904.396 532.544L898.863 527.008L893.329 532.544L898.863 538.08Z" fill="#E6D6B5"/>
<path d="M722.328 532.677C722.335 532.887 722.293 533.096 722.207 533.288C722.121 533.48 721.992 533.649 721.83 533.784L714.138 541.534C713.994 541.681 713.822 541.798 713.632 541.878C713.442 541.958 713.238 541.999 713.032 541.999C712.826 541.999 712.622 541.958 712.431 541.878C712.241 541.798 712.069 541.681 711.925 541.534L704.233 533.784C704.088 533.644 703.972 533.477 703.892 533.291C703.813 533.106 703.772 532.906 703.772 532.705C703.772 532.503 703.813 532.303 703.892 532.118C703.972 531.932 704.088 531.765 704.233 531.625L711.925 523.875C712.069 523.728 712.241 523.611 712.431 523.531C712.622 523.451 712.826 523.41 713.032 523.41C713.238 523.41 713.442 523.451 713.632 523.531C713.822 523.611 713.994 523.728 714.138 523.875L721.83 531.625C721.985 531.754 722.109 531.914 722.195 532.096C722.281 532.278 722.327 532.476 722.328 532.677ZM713.032 538.212L718.565 532.677L713.032 527.141L707.498 532.677L713.032 538.212Z" fill="#E6D6B5"/>
<path d="M892.665 532.544C892.682 532.75 892.651 532.958 892.574 533.15C892.498 533.342 892.377 533.514 892.222 533.651L884.53 541.401C884.386 541.548 884.214 541.665 884.024 541.745C883.834 541.825 883.629 541.866 883.423 541.866C883.217 541.866 883.013 541.825 882.823 541.745C882.633 541.665 882.461 541.548 882.317 541.401L874.625 533.651C874.479 533.512 874.363 533.344 874.284 533.159C874.205 532.973 874.164 532.773 874.164 532.572C874.164 532.37 874.205 532.17 874.284 531.985C874.363 531.799 874.479 531.632 874.625 531.492L882.317 523.742C882.461 523.595 882.633 523.478 882.823 523.398C883.013 523.318 883.217 523.277 883.423 523.277C883.629 523.277 883.834 523.318 884.024 523.398C884.214 523.478 884.386 523.595 884.53 523.742L892.277 531.492C892.414 531.629 892.52 531.794 892.587 531.975C892.654 532.157 892.681 532.351 892.665 532.544ZM883.423 538.08L888.957 532.544L883.423 527.008L877.89 532.544L883.423 538.08Z" fill="#E6D6B5"/>
<path d="M706.834 532.677C706.851 532.883 706.82 533.091 706.743 533.283C706.667 533.475 706.546 533.647 706.391 533.784L698.699 541.534C698.555 541.681 698.383 541.798 698.193 541.878C698.003 541.958 697.798 541.999 697.592 541.999C697.386 541.999 697.182 541.958 696.992 541.878C696.802 541.798 696.63 541.681 696.486 541.534L688.794 533.784C688.648 533.644 688.532 533.477 688.453 533.291C688.374 533.106 688.333 532.906 688.333 532.705C688.333 532.503 688.374 532.303 688.453 532.118C688.532 531.932 688.648 531.765 688.794 531.625L696.486 523.875C696.63 523.728 696.802 523.611 696.992 523.531C697.182 523.451 697.386 523.41 697.592 523.41C697.798 523.41 698.003 523.451 698.193 523.531C698.383 523.611 698.555 523.728 698.699 523.875L706.446 531.625C706.583 531.762 706.689 531.926 706.756 532.108C706.823 532.29 706.849 532.484 706.834 532.677ZM697.592 538.212L703.126 532.677L697.592 527.141L692.059 532.677L697.592 538.212Z" fill="#E6D6B5"/>
<path d="M877.224 532.544C877.242 532.75 877.211 532.958 877.134 533.15C877.057 533.342 876.936 533.514 876.782 533.651L869.09 541.401C868.945 541.548 868.773 541.665 868.583 541.745C868.393 541.825 868.189 541.866 867.983 541.866C867.777 541.866 867.573 541.825 867.383 541.745C867.193 541.665 867.02 541.548 866.876 541.401L859.184 533.651C859.039 533.512 858.923 533.344 858.844 533.159C858.765 532.973 858.724 532.773 858.724 532.572C858.724 532.37 858.765 532.17 858.844 531.985C858.923 531.799 859.039 531.632 859.184 531.492L866.876 523.742C867.02 523.595 867.193 523.478 867.383 523.398C867.573 523.318 867.777 523.277 867.983 523.277C868.189 523.277 868.393 523.318 868.583 523.398C868.773 523.478 868.945 523.595 869.09 523.742L876.782 531.492C876.929 531.624 877.045 531.786 877.121 531.968C877.198 532.15 877.233 532.347 877.224 532.544ZM867.983 538.08L873.517 532.544L867.983 527.008L862.449 532.544L867.983 538.08Z" fill="#E6D6B5"/>
<path d="M691.393 532.677C691.411 532.883 691.38 533.091 691.303 533.283C691.226 533.475 691.105 533.647 690.95 533.784L683.259 541.534C683.114 541.681 682.942 541.798 682.752 541.878C682.562 541.958 682.358 541.999 682.152 541.999C681.946 541.999 681.742 541.958 681.552 541.878C681.362 541.798 681.189 541.681 681.045 541.534L673.353 533.784C673.208 533.644 673.092 533.477 673.013 533.291C672.933 533.106 672.893 532.906 672.893 532.705C672.893 532.503 672.933 532.303 673.013 532.118C673.092 531.932 673.208 531.765 673.353 531.625L681.045 523.875C681.189 523.728 681.362 523.611 681.552 523.531C681.742 523.451 681.946 523.41 682.152 523.41C682.358 523.41 682.562 523.451 682.752 523.531C682.942 523.611 683.114 523.728 683.259 523.875L690.95 531.625C691.098 531.756 691.214 531.919 691.29 532.101C691.367 532.283 691.402 532.48 691.393 532.677ZM682.152 538.212L687.685 532.677L682.152 527.141L676.618 532.677L682.152 538.212Z" fill="#E6D6B5"/>
<path d="M861.786 532.544C861.789 532.748 861.752 532.951 861.676 533.141C861.6 533.331 861.487 533.504 861.344 533.651L853.597 541.4C853.457 541.546 853.29 541.662 853.104 541.741C852.919 541.82 852.719 541.861 852.518 541.861C852.316 541.861 852.116 541.82 851.931 541.741C851.745 541.662 851.578 541.546 851.438 541.4L843.691 533.651C843.423 533.355 843.274 532.97 843.274 532.571C843.274 532.172 843.423 531.787 843.691 531.492L851.438 523.742C851.578 523.596 851.745 523.48 851.931 523.401C852.116 523.322 852.316 523.281 852.518 523.281C852.719 523.281 852.919 523.322 853.104 523.401C853.29 523.48 853.457 523.596 853.597 523.742L861.344 531.492C861.625 531.77 861.784 532.148 861.786 532.544ZM852.545 538.079L858.079 532.544L852.545 527.008L847.012 532.544L852.545 538.079Z" fill="#E6D6B5"/>
<path d="M675.955 532.676C675.958 532.881 675.921 533.084 675.845 533.274C675.769 533.464 675.656 533.637 675.513 533.783L667.766 541.533C667.626 541.679 667.459 541.795 667.273 541.874C667.088 541.953 666.888 541.994 666.687 541.994C666.485 541.994 666.285 541.953 666.1 541.874C665.914 541.795 665.747 541.679 665.607 541.533L657.86 533.783C657.592 533.488 657.443 533.103 657.443 532.704C657.443 532.305 657.592 531.92 657.86 531.625L665.607 523.875C665.747 523.729 665.914 523.613 666.1 523.534C666.285 523.455 666.485 523.414 666.687 523.414C666.888 523.414 667.088 523.455 667.273 523.534C667.459 523.613 667.626 523.729 667.766 523.875L675.513 531.625C675.794 531.903 675.953 532.281 675.955 532.676ZM666.714 538.212L672.248 532.676L666.714 527.141L661.181 532.676L666.714 538.212Z" fill="#E6D6B5"/>
<path d="M846.35 532.547C846.358 532.752 846.323 532.957 846.248 533.149C846.173 533.34 846.059 533.514 845.913 533.66C845.768 533.805 845.594 533.919 845.402 533.994C845.211 534.07 845.006 534.104 844.801 534.097H737.337C736.926 534.097 736.532 533.933 736.241 533.643C735.95 533.352 735.787 532.958 735.787 532.547C735.801 532.14 735.969 531.754 736.256 531.466C736.544 531.178 736.93 531.01 737.337 530.997H844.801C845.212 530.997 845.606 531.16 845.896 531.451C846.187 531.741 846.35 532.136 846.35 532.547Z" fill="#E6D6B5"/>
<path d="M660.116 532.849C660.123 533.055 660.089 533.26 660.013 533.452C659.938 533.643 659.825 533.817 659.679 533.963C659.534 534.108 659.36 534.222 659.168 534.297C658.977 534.372 658.772 534.407 658.566 534.399H551.102C550.691 534.399 550.297 534.236 550.007 533.945C549.716 533.655 549.553 533.26 549.553 532.849C549.567 532.443 549.734 532.056 550.022 531.769C550.31 531.481 550.696 531.313 551.102 531.299H658.566C658.977 531.299 659.371 531.463 659.662 531.753C659.952 532.044 660.116 532.438 660.116 532.849Z" fill="#E6D6B5"/>
<path d="M1067.97 38.7698V242.314C1068.01 242.538 1068.01 242.769 1067.95 242.99C1067.89 243.211 1067.79 243.417 1067.64 243.593C1067.5 243.769 1067.32 243.91 1067.11 244.008C1066.9 244.105 1066.68 244.155 1066.45 244.155C1066.22 244.155 1066 244.105 1065.79 244.008C1065.58 243.91 1065.4 243.769 1065.26 243.593C1065.11 243.417 1065.01 243.211 1064.95 242.99C1064.89 242.769 1064.89 242.538 1064.93 242.314V38.7698C1064.89 38.5456 1064.89 38.3148 1064.95 38.0937C1065.01 37.8725 1065.11 37.6666 1065.26 37.4907C1065.4 37.3147 1065.58 37.1732 1065.79 37.0759C1066 36.9787 1066.22 36.9283 1066.45 36.9283C1066.68 36.9283 1066.9 36.9787 1067.11 37.0759C1067.32 37.1732 1067.5 37.3147 1067.64 37.4907C1067.79 37.6666 1067.89 37.8725 1067.95 38.0937C1068.01 38.3148 1068.01 38.5456 1067.97 38.7698Z" fill="#E6D6B5"/>
<path d="M1030.95 1.68344C1030.94 2.09013 1030.77 2.47636 1030.48 2.7641C1030.2 3.05184 1029.81 3.2196 1029.4 3.2334L914.414 3.2334C914.007 3.2196 913.621 3.05184 913.333 2.7641C913.046 2.47636 912.878 2.09013 912.864 1.68344C912.864 1.27236 913.027 0.878076 913.318 0.5874C913.609 0.296725 914.003 0.133477 914.414 0.133477L1029.51 0.133477C1029.91 0.161519 1030.27 0.337127 1030.54 0.624819C1030.81 0.912511 1030.95 1.29084 1030.95 1.68344Z" fill="#E6D6B5"/>
<path d="M1052.75 50.2838V242.314C1052.8 242.538 1052.79 242.769 1052.73 242.99C1052.68 243.211 1052.57 243.417 1052.43 243.593C1052.28 243.769 1052.1 243.91 1051.89 244.008C1051.68 244.105 1051.46 244.155 1051.23 244.155C1051 244.155 1050.78 244.105 1050.57 244.008C1050.36 243.91 1050.18 243.769 1050.04 243.593C1049.89 243.417 1049.79 243.211 1049.73 242.99C1049.67 242.769 1049.67 242.538 1049.71 242.314V50.2838C1049.67 50.0596 1049.67 49.8287 1049.73 49.6076C1049.79 49.3865 1049.89 49.1806 1050.04 49.0047C1050.18 48.8287 1050.36 48.6872 1050.57 48.5899C1050.78 48.4927 1051 48.4423 1051.23 48.4423C1051.46 48.4423 1051.68 48.4927 1051.89 48.5899C1052.1 48.6872 1052.28 48.8287 1052.43 49.0047C1052.57 49.1806 1052.68 49.3865 1052.73 49.6076C1052.79 49.8287 1052.8 50.0596 1052.75 50.2838Z" fill="#E6D6B5"/>
<path d="M1019.55 17.0746C1019.54 17.4812 1019.37 17.8675 1019.08 18.1552C1018.8 18.443 1018.41 18.6107 1018 18.6245L914.414 18.6245C914.007 18.6107 913.621 18.443 913.333 18.1552C913.046 17.8675 912.878 17.4812 912.864 17.0746C912.864 16.6635 913.027 16.2693 913.318 15.9786C913.609 15.6879 914.003 15.5246 914.414 15.5246L1017.84 15.5246C1018.06 15.5012 1018.27 15.5239 1018.48 15.5912C1018.69 15.6586 1018.88 15.7691 1019.04 15.9154C1019.2 16.0617 1019.33 16.2406 1019.42 16.4404C1019.51 16.6401 1019.55 16.8562 1019.55 17.0746Z" fill="#E6D6B5"/>
<path d="M1067.97 54.2121C1067.98 54.4172 1067.94 54.6213 1067.86 54.8118C1067.79 55.0022 1067.67 55.175 1067.53 55.3192L1052.53 70.2653V270.986C1052.57 271.21 1052.57 271.441 1052.51 271.662C1052.45 271.883 1052.35 272.089 1052.2 272.265C1052.06 272.441 1051.88 272.583 1051.67 272.68C1051.46 272.777 1051.24 272.828 1051.01 272.828C1050.78 272.828 1050.56 272.777 1050.35 272.68C1050.14 272.583 1049.96 272.441 1049.82 272.265C1049.67 272.089 1049.57 271.883 1049.51 271.662C1049.45 271.441 1049.45 271.21 1049.49 270.986V69.6564C1049.48 69.4509 1049.51 69.2458 1049.59 69.0548C1049.67 68.8639 1049.78 68.6915 1049.93 68.5493L1065.37 53.1049C1065.59 52.9022 1065.86 52.7672 1066.16 52.7161C1066.45 52.665 1066.75 52.7 1067.03 52.817C1067.3 52.934 1067.54 53.1278 1067.71 53.3753C1067.87 53.6228 1067.97 53.9135 1067.97 54.2121Z" fill="#E6D6B5"/>
<path d="M1067.97 242.315C1067.98 242.52 1067.94 242.724 1067.87 242.914C1067.79 243.105 1067.68 243.278 1067.53 243.422L1038.87 272.096C1038.73 272.242 1038.56 272.358 1038.37 272.437C1038.19 272.516 1037.99 272.557 1037.79 272.557C1037.58 272.557 1037.39 272.516 1037.2 272.437C1037.01 272.358 1036.85 272.242 1036.71 272.096C1036.56 271.952 1036.44 271.78 1036.36 271.59C1036.28 271.4 1036.24 271.195 1036.24 270.989C1036.24 270.783 1036.28 270.579 1036.36 270.389C1036.44 270.199 1036.56 270.026 1036.71 269.882L1065.37 241.208C1065.59 241.005 1065.86 240.87 1066.16 240.819C1066.45 240.768 1066.76 240.803 1067.03 240.92C1067.3 241.037 1067.54 241.231 1067.71 241.478C1067.87 241.726 1067.97 242.016 1067.97 242.315Z" fill="#E6D6B5"/>
<path d="M1067.97 38.7728C1067.97 39.1745 1067.82 39.5605 1067.54 39.8497C1067.26 40.1388 1066.88 40.3084 1066.48 40.3228C1056.21 40.3228 1046.35 36.2403 1039.09 28.9734C1031.82 21.7065 1027.74 11.8505 1027.74 1.57357C1027.74 1.36794 1027.77 1.16297 1027.85 0.971409C1027.92 0.779842 1028.03 0.605808 1028.18 0.4603C1028.33 0.314793 1028.5 0.200958 1028.69 0.125813C1028.88 0.0506706 1029.09 0.0158424 1029.29 0.0236092C1029.7 0.0236092 1030.1 0.186939 1030.39 0.477615C1030.68 0.768291 1030.84 1.16249 1030.84 1.57357C1030.86 10.9945 1034.6 20.0254 1041.26 26.687C1047.92 33.3486 1056.95 37.0975 1066.37 37.1121C1066.59 37.0943 1066.81 37.1255 1067.02 37.2035C1067.22 37.2815 1067.41 37.4043 1067.56 37.5631C1067.72 37.7219 1067.83 37.9127 1067.9 38.1219C1067.97 38.3311 1068 38.5534 1067.97 38.7728Z" fill="#E6D6B5"/>
<path d="M1052.75 50.2879C1052.75 50.699 1052.59 51.0932 1052.3 51.3839C1052.01 51.6746 1051.62 51.8379 1051.2 51.8379C1041.97 51.8232 1033.11 48.1425 1026.59 41.6039C1020.06 35.0653 1016.4 26.2033 1016.4 16.9636C1016.39 16.758 1016.42 16.553 1016.5 16.3614C1016.57 16.1699 1016.69 15.9958 1016.83 15.8503C1016.98 15.7048 1017.15 15.591 1017.34 15.5159C1017.54 15.4407 1017.74 15.4059 1017.95 15.4136C1018.36 15.4136 1018.75 15.577 1019.04 15.8677C1019.33 16.1583 1019.5 16.5525 1019.5 16.9636C1019.5 25.3811 1022.84 33.4547 1028.78 39.4119C1034.72 45.3692 1042.79 48.7233 1051.2 48.738C1051.41 48.7302 1051.61 48.7649 1051.81 48.8401C1052 48.9152 1052.17 49.0292 1052.32 49.1747C1052.46 49.3202 1052.58 49.4941 1052.65 49.6857C1052.73 49.8772 1052.76 50.0823 1052.75 50.2879Z" fill="#E6D6B5"/>
<path d="M923.598 9.37756C923.601 9.5822 923.563 9.78539 923.487 9.97541C923.411 10.1654 923.298 10.3385 923.155 10.4847L915.408 18.2345C915.264 18.3818 915.091 18.4988 914.901 18.5787C914.711 18.6585 914.507 18.6997 914.301 18.6997C914.095 18.6997 913.891 18.6585 913.701 18.5787C913.511 18.4988 913.339 18.3818 913.194 18.2345L905.503 10.4847C905.357 10.3451 905.241 10.1776 905.162 9.99205C905.083 9.80654 905.042 9.60698 905.042 9.40527C905.042 9.20355 905.083 9.00391 905.162 8.81839C905.241 8.63288 905.357 8.4653 905.503 8.32578L913.194 0.575981C913.339 0.42869 913.511 0.311663 913.701 0.231779C913.891 0.151897 914.095 0.110739 914.301 0.110739C914.507 0.110739 914.711 0.151897 914.901 0.231779C915.091 0.311663 915.264 0.42869 915.408 0.575981L923.155 8.32578C923.436 8.604 923.595 8.9822 923.598 9.37756ZM914.301 14.9132L919.835 9.37756L914.301 3.84196L908.768 9.37756L914.301 14.9132Z" fill="#E6D6B5"/>
<path d="M737.767 9.51037C737.77 9.71501 737.732 9.91821 737.656 10.1082C737.58 10.2982 737.467 10.4713 737.324 10.6175L729.577 18.3674C729.433 18.5147 729.26 18.6316 729.07 18.7115C728.88 18.7914 728.676 18.8325 728.47 18.8325C728.264 18.8325 728.06 18.7914 727.87 18.7115C727.68 18.6316 727.508 18.5147 727.363 18.3674L719.672 10.6175C719.526 10.478 719.41 10.3104 719.331 10.1249C719.252 9.93935 719.211 9.73979 719.211 9.53808C719.211 9.33637 719.252 9.13672 719.331 8.9512C719.41 8.76569 719.526 8.59811 719.672 8.4586L727.363 0.708794C727.508 0.561502 727.68 0.444475 727.87 0.364592C728.06 0.28471 728.264 0.243551 728.47 0.243551C728.676 0.243551 728.88 0.28471 729.07 0.364592C729.26 0.444475 729.433 0.561502 729.577 0.708794L737.324 8.4586C737.605 8.73681 737.764 9.11501 737.767 9.51037ZM728.47 15.046L734.004 9.51037L728.47 3.97478L722.936 9.51037L728.47 15.046Z" fill="#E6D6B5"/>
<path d="M908.159 9.37756C908.166 9.58783 908.124 9.79683 908.038 9.98868C907.952 10.1805 907.823 10.3501 907.661 10.4847L899.97 18.2345C899.825 18.3818 899.653 18.4988 899.463 18.5787C899.273 18.6585 899.069 18.6997 898.863 18.6997C898.657 18.6997 898.453 18.6585 898.263 18.5787C898.073 18.4988 897.9 18.3818 897.756 18.2345L890.064 10.4847C889.919 10.3451 889.803 10.1776 889.723 9.99205C889.644 9.80654 889.604 9.60698 889.604 9.40527C889.604 9.20355 889.644 9.00391 889.723 8.81839C889.803 8.63288 889.919 8.4653 890.064 8.32578L897.811 0.465246C897.956 0.317955 898.128 0.200928 898.318 0.121044C898.508 0.0411606 898.712 3.8147e-06 898.918 3.8147e-06C899.124 3.8147e-06 899.328 0.0411606 899.518 0.121044C899.708 0.200928 899.88 0.317955 900.025 0.465246L907.717 8.21505C907.876 8.36081 907.999 8.54186 908.076 8.74372C908.153 8.94558 908.181 9.16268 908.159 9.37756ZM898.863 14.9132L904.396 9.37756L898.863 3.84196L893.329 9.37756L898.863 14.9132Z" fill="#E6D6B5"/>
<path d="M722.328 9.51037C722.335 9.72064 722.293 9.92965 722.207 10.1215C722.121 10.3133 721.992 10.4829 721.83 10.6175L714.138 18.3674C713.994 18.5147 713.822 18.6316 713.632 18.7115C713.442 18.7914 713.238 18.8325 713.032 18.8325C712.826 18.8325 712.622 18.7914 712.431 18.7115C712.241 18.6316 712.069 18.5147 711.925 18.3674L704.233 10.6175C704.088 10.478 703.972 10.3104 703.892 10.1249C703.813 9.93935 703.772 9.73979 703.772 9.53808C703.772 9.33637 703.813 9.13672 703.892 8.9512C703.972 8.76569 704.088 8.59811 704.233 8.4586L711.98 0.598059C712.125 0.450768 712.297 0.33374 712.487 0.253857C712.677 0.173973 712.881 0.132816 713.087 0.132816C713.293 0.132816 713.497 0.173973 713.687 0.253857C713.877 0.33374 714.049 0.450768 714.194 0.598059L721.886 8.34786C722.045 8.49362 722.168 8.67468 722.245 8.87654C722.322 9.07839 722.35 9.29549 722.328 9.51037ZM713.032 15.046L718.565 9.51037L713.032 3.97478L707.498 9.51037L713.032 15.046Z" fill="#E6D6B5"/>
<path d="M892.665 9.37756C892.682 9.58384 892.651 9.79139 892.574 9.98361C892.498 10.1758 892.377 10.3474 892.222 10.4847L884.53 18.2345C884.386 18.3818 884.214 18.4988 884.024 18.5787C883.834 18.6585 883.629 18.6997 883.423 18.6997C883.217 18.6997 883.013 18.6585 882.823 18.5787C882.633 18.4988 882.461 18.3818 882.317 18.2345L874.625 10.4847C874.479 10.3451 874.363 10.1776 874.284 9.99205C874.205 9.80654 874.164 9.60698 874.164 9.40527C874.164 9.20355 874.205 9.00391 874.284 8.81839C874.363 8.63288 874.479 8.4653 874.625 8.32578L882.317 0.575981C882.461 0.42869 882.633 0.311663 882.823 0.231779C883.013 0.151897 883.217 0.110739 883.423 0.110739C883.629 0.110739 883.834 0.151897 884.024 0.231779C884.214 0.311663 884.386 0.42869 884.53 0.575981L892.222 8.32578C892.369 8.45718 892.485 8.61973 892.562 8.80167C892.638 8.9836 892.674 9.18036 892.665 9.37756ZM883.423 14.9132L888.957 9.37756L883.423 3.84196L877.89 9.37756L883.423 14.9132Z" fill="#E6D6B5"/>
<path d="M706.834 9.51037C706.851 9.71666 706.82 9.9242 706.743 10.1164C706.667 10.3086 706.546 10.4802 706.391 10.6175L698.699 18.3674C698.555 18.5147 698.383 18.6316 698.193 18.7115C698.003 18.7914 697.798 18.8325 697.592 18.8325C697.386 18.8325 697.182 18.7914 696.992 18.7115C696.802 18.6316 696.63 18.5147 696.486 18.3674L688.794 10.6175C688.648 10.478 688.532 10.3104 688.453 10.1249C688.374 9.93935 688.333 9.73979 688.333 9.53808C688.333 9.33637 688.374 9.13672 688.453 8.9512C688.532 8.76569 688.648 8.59811 688.794 8.4586L696.486 0.708794C696.63 0.561502 696.802 0.444475 696.992 0.364592C697.182 0.28471 697.386 0.243551 697.592 0.243551C697.798 0.243551 698.003 0.28471 698.193 0.364592C698.383 0.444475 698.555 0.561502 698.699 0.708794L706.391 8.4586C706.538 8.59 706.654 8.75255 706.731 8.93448C706.807 9.11641 706.842 9.31317 706.834 9.51037ZM697.592 15.046L703.126 9.51037L697.592 3.97478L692.059 9.51037L697.592 15.046Z" fill="#E6D6B5"/>
<path d="M877.224 9.37756C877.242 9.58384 877.211 9.79139 877.134 9.98361C877.057 10.1758 876.936 10.3474 876.782 10.4847L869.09 18.2345C868.945 18.3818 868.773 18.4988 868.583 18.5787C868.393 18.6585 868.189 18.6997 867.983 18.6997C867.777 18.6997 867.573 18.6585 867.383 18.5787C867.193 18.4988 867.02 18.3818 866.876 18.2345L859.184 10.4847C859.039 10.3451 858.923 10.1776 858.844 9.99205C858.765 9.80654 858.724 9.60698 858.724 9.40527C858.724 9.20355 858.765 9.00391 858.844 8.81839C858.923 8.63288 859.039 8.4653 859.184 8.32578L866.876 0.575981C867.02 0.42869 867.193 0.311663 867.383 0.231779C867.573 0.151897 867.777 0.110739 867.983 0.110739C868.189 0.110739 868.393 0.151897 868.583 0.231779C868.773 0.311663 868.945 0.42869 869.09 0.575981L876.782 8.32578C876.929 8.45718 877.045 8.61973 877.121 8.80167C877.198 8.9836 877.233 9.18036 877.224 9.37756ZM867.983 14.9132L873.517 9.37756L867.983 3.84196L862.449 9.37756L867.983 14.9132Z" fill="#E6D6B5"/>
<path d="M691.393 9.51037C691.411 9.71666 691.38 9.9242 691.303 10.1164C691.226 10.3086 691.105 10.4802 690.95 10.6175L683.259 18.3674C683.114 18.5147 682.942 18.6316 682.752 18.7115C682.562 18.7914 682.358 18.8325 682.152 18.8325C681.946 18.8325 681.742 18.7914 681.552 18.7115C681.362 18.6316 681.189 18.5147 681.045 18.3674L673.353 10.6175C673.208 10.478 673.092 10.3104 673.013 10.1249C672.933 9.93935 672.893 9.73979 672.893 9.53808C672.893 9.33637 672.933 9.13672 673.013 8.9512C673.092 8.76569 673.208 8.59811 673.353 8.4586L681.045 0.708794C681.189 0.561502 681.362 0.444475 681.552 0.364592C681.742 0.28471 681.946 0.243551 682.152 0.243551C682.358 0.243551 682.562 0.28471 682.752 0.364592C682.942 0.444475 683.114 0.561502 683.259 0.708794L690.95 8.4586C691.098 8.59 691.214 8.75255 691.29 8.93448C691.367 9.11641 691.402 9.31317 691.393 9.51037ZM682.152 15.046L687.685 9.51037L682.152 3.97478L676.618 9.51037L682.152 15.046Z" fill="#E6D6B5"/>
<path d="M861.786 9.37698C861.789 9.58162 861.752 9.78482 861.676 9.97484C861.6 10.1649 861.487 10.3379 861.344 10.4841L853.597 18.234C853.457 18.3797 853.29 18.4955 853.104 18.5747C852.919 18.6539 852.719 18.6948 852.518 18.6948C852.316 18.6948 852.116 18.6539 851.931 18.5747C851.745 18.4955 851.578 18.3797 851.438 18.234L843.691 10.4841C843.423 10.1886 843.274 9.80385 843.274 9.40469C843.274 9.00553 843.423 8.62065 843.691 8.32521L851.438 0.575405C851.578 0.429724 851.745 0.313784 851.931 0.234583C852.116 0.15538 852.316 0.114555 852.518 0.114555C852.719 0.114555 852.919 0.15538 853.104 0.234583C853.29 0.313784 853.457 0.429724 853.597 0.575405L861.344 8.32521C861.625 8.60342 861.784 8.98162 861.786 9.37698ZM852.545 14.9126L858.079 9.37698L852.545 3.84139L847.012 9.37698L852.545 14.9126Z" fill="#E6D6B5"/>
<path d="M675.955 9.5098C675.958 9.71443 675.921 9.91763 675.845 10.1077C675.769 10.2977 675.656 10.4707 675.513 10.6169L667.766 18.3668C667.626 18.5125 667.459 18.6283 667.273 18.7075C667.088 18.7867 666.888 18.8276 666.687 18.8276C666.485 18.8276 666.285 18.7867 666.1 18.7075C665.914 18.6283 665.747 18.5125 665.607 18.3668L657.86 10.6169C657.592 10.3215 657.443 9.93666 657.443 9.5375C657.443 9.13835 657.592 8.75347 657.86 8.45802L665.607 0.708218C665.747 0.562536 665.914 0.446596 666.1 0.367395C666.285 0.288193 666.485 0.247368 666.687 0.247368C666.888 0.247368 667.088 0.288193 667.273 0.367395C667.459 0.446596 667.626 0.562536 667.766 0.708218L675.513 8.45802C675.794 8.73623 675.953 9.11444 675.955 9.5098ZM666.714 15.0454L672.248 9.5098L666.714 3.9742L661.181 9.5098L666.714 15.0454Z" fill="#E6D6B5"/>
<path d="M846.35 9.37573C846.358 9.58136 846.323 9.78641 846.248 9.97798C846.173 10.1695 846.059 10.3435 845.913 10.489C845.768 10.6345 845.594 10.7484 845.402 10.8236C845.211 10.8987 845.006 10.9335 844.801 10.9257L737.337 10.9257C736.926 10.9257 736.532 10.7624 736.241 10.4717C735.95 10.181 735.787 9.78681 735.787 9.37573C735.801 8.96904 735.969 8.5828 736.256 8.29507C736.544 8.00733 736.93 7.83957 737.337 7.82577L844.801 7.82577C845.212 7.82577 845.606 7.98902 845.896 8.27969C846.187 8.57037 846.35 8.96465 846.35 9.37573Z" fill="#E6D6B5"/>
<path d="M660.116 9.677C660.123 9.88263 660.089 10.0877 660.013 10.2792C659.938 10.4708 659.825 10.6448 659.679 10.7903C659.534 10.9358 659.36 11.0497 659.168 11.1248C658.977 11.2 658.772 11.2347 658.566 11.227L551.102 11.227C550.691 11.227 550.297 11.0636 550.007 10.773C549.716 10.4823 549.553 10.0881 549.553 9.677C549.567 9.27031 549.734 8.88407 550.022 8.59634C550.31 8.3086 550.696 8.14084 551.102 8.12704L658.566 8.12704C658.977 8.12704 659.371 8.29029 659.662 8.58096C659.952 8.87164 660.116 9.26592 660.116 9.677Z" fill="#E6D6B5"/>
<path d="M3.15422 299.386L3.15422 503.207C3.19715 503.431 3.19007 503.662 3.13345 503.883C3.07683 504.104 2.97207 504.31 2.82669 504.486C2.68131 504.662 2.4989 504.803 2.29246 504.901C2.08601 504.998 1.86059 505.048 1.63241 505.048C1.40423 505.048 1.17889 504.998 0.972449 504.901C0.766005 504.803 0.583594 504.662 0.438215 504.486C0.292836 504.31 0.188072 504.104 0.131454 503.883C0.074836 503.662 0.0677539 503.431 0.110683 503.207L0.110683 299.386C0.0677539 299.162 0.074836 298.931 0.131454 298.71C0.188072 298.489 0.292836 298.283 0.438215 298.107C0.583594 297.931 0.766005 297.789 0.972449 297.692C1.17889 297.595 1.40423 297.544 1.63241 297.544C1.86059 297.544 2.08601 297.595 2.29246 297.692C2.4989 297.789 2.68131 297.931 2.82669 298.107C2.97207 298.283 3.07683 298.489 3.13345 298.71C3.19007 298.931 3.19715 299.162 3.15422 299.386Z" fill="#E6D6B5"/>
<path d="M155.328 540.296C155.314 540.703 155.147 541.089 154.859 541.377C154.571 541.665 154.185 541.832 153.779 541.846H38.6783C38.2674 541.846 37.8732 541.683 37.5827 541.392C37.2921 541.102 37.1289 540.707 37.1289 540.296C37.1289 539.885 37.2921 539.491 37.5827 539.2C37.8732 538.91 38.2674 538.746 38.6783 538.746H153.668C153.879 538.739 154.089 538.773 154.287 538.847C154.484 538.921 154.665 539.033 154.819 539.177C154.974 539.321 155.098 539.494 155.185 539.686C155.272 539.878 155.321 540.085 155.328 540.296Z" fill="#E6D6B5"/>
<path d="M18.6487 326.292L18.6487 491.53C18.6349 491.936 18.4672 492.323 18.1796 492.61C17.892 492.898 17.5059 493.066 17.0993 493.08C16.6884 493.08 16.2942 492.916 16.0037 492.626C15.7131 492.335 15.5498 491.941 15.5498 491.53L15.5498 326.292C15.5498 325.881 15.7131 325.487 16.0037 325.196C16.2942 324.905 16.6884 324.742 17.0993 324.742C17.5059 324.756 17.892 324.924 18.1796 325.211C18.4672 325.499 18.6349 325.885 18.6487 326.292Z" fill="#E6D6B5"/>
<path d="M155.328 524.852C155.3 525.268 155.111 525.657 154.801 525.936C154.491 526.215 154.085 526.362 153.668 526.347H50.4099C50.2064 526.347 50.0049 526.306 49.8169 526.229C49.629 526.151 49.4582 526.037 49.3143 525.893C49.1704 525.749 49.0563 525.578 48.9784 525.39C48.9005 525.202 48.8604 525 48.8604 524.797C48.8527 524.591 48.8875 524.386 48.9626 524.194C49.0377 524.003 49.1515 523.829 49.297 523.683C49.4424 523.538 49.6164 523.424 49.8079 523.349C49.9994 523.274 50.2043 523.239 50.4099 523.247H153.668C153.886 523.231 154.104 523.261 154.309 523.336C154.513 523.41 154.7 523.527 154.857 523.678C155.014 523.83 155.137 524.012 155.218 524.215C155.299 524.417 155.337 524.634 155.328 524.852Z" fill="#E6D6B5"/>
<path d="M18.6481 270.992L18.6481 472.322C18.6439 472.53 18.5975 472.736 18.5119 472.926C18.4263 473.116 18.3032 473.287 18.15 473.429L2.7111 488.873C2.57163 489.019 2.40411 489.135 2.21866 489.214C2.03322 489.293 1.83364 489.334 1.63199 489.334C1.43035 489.334 1.23086 489.293 1.04541 489.214C0.85996 489.135 0.692439 489.019 0.552971 488.873C0.405731 488.729 0.288744 488.557 0.208889 488.366C0.129034 488.176 0.0878906 487.972 0.0878906 487.766C0.0878906 487.56 0.129034 487.356 0.208889 487.166C0.288744 486.975 0.405731 486.803 0.552971 486.659L15.3279 471.657L15.3279 270.992C15.3201 270.786 15.3548 270.581 15.43 270.39C15.5051 270.198 15.619 270.024 15.7644 269.879C15.9099 269.733 16.0838 269.619 16.2753 269.544C16.4668 269.469 16.6717 269.434 16.8773 269.442C17.0985 269.41 17.3241 269.426 17.5384 269.49C17.7528 269.553 17.9508 269.662 18.119 269.81C18.2873 269.957 18.4216 270.139 18.5129 270.343C18.6043 270.547 18.6504 270.768 18.6481 270.992Z" fill="#E6D6B5"/>
<path d="M31.9295 270.989C31.9357 271.194 31.8995 271.399 31.8233 271.589C31.7472 271.779 31.6326 271.952 31.4868 272.096L2.82243 300.771C2.52709 301.039 2.14234 301.188 1.74332 301.188C1.3443 301.188 0.959642 301.039 0.664299 300.771C0.51706 300.627 0.400072 300.454 0.320217 300.264C0.240362 300.074 0.199219 299.87 0.199219 299.664C0.199219 299.458 0.240362 299.253 0.320217 299.063C0.400072 298.873 0.51706 298.701 0.664299 298.557L29.3287 269.882C29.548 269.679 29.8212 269.544 30.1154 269.493C30.4096 269.442 30.7124 269.477 30.9871 269.594C31.2619 269.711 31.497 269.905 31.6642 270.153C31.8314 270.4 31.9235 270.691 31.9295 270.989Z" fill="#E6D6B5"/>
<path d="M40.2305 540.296C40.2305 540.707 40.0673 541.102 39.7767 541.392C39.4861 541.683 39.092 541.846 38.6811 541.846C38.2746 541.832 37.8884 541.665 37.6007 541.377C37.3131 541.089 37.1455 540.703 37.1317 540.296C37.1171 530.875 33.3694 521.844 26.7101 515.183C20.0508 508.521 11.0231 504.772 1.60549 504.758C1.40454 504.758 1.20557 504.717 1.0206 504.639C0.835621 504.56 0.668407 504.445 0.528919 504.301C0.389431 504.156 0.280563 503.984 0.208817 503.797C0.137072 503.609 0.103934 503.409 0.111377 503.208C0.111121 502.806 0.266757 502.42 0.545469 502.131C0.824181 501.842 1.20423 501.672 1.60549 501.658C11.8405 501.687 21.648 505.767 28.8853 513.007C36.1226 520.247 40.2013 530.058 40.2305 540.296Z" fill="#E6D6B5"/>
<path d="M51.9061 524.851C51.949 525.075 51.942 525.306 51.8853 525.527C51.8287 525.749 51.724 525.954 51.5786 526.13C51.4332 526.306 51.2508 526.448 51.0443 526.545C50.8379 526.642 50.6126 526.693 50.3844 526.693C50.1562 526.693 49.9308 526.642 49.7243 526.545C49.5179 526.448 49.3355 526.306 49.1901 526.13C49.0447 525.954 48.94 525.749 48.8833 525.527C48.8267 525.306 48.8196 525.075 48.8626 524.851C48.8333 516.438 45.4757 508.379 39.5236 502.435C33.5716 496.492 25.5094 493.147 17.0993 493.132C16.6884 493.132 16.2942 492.969 16.0037 492.678C15.7131 492.388 15.5498 491.993 15.5498 491.582C15.5498 491.171 15.7131 490.777 16.0037 490.486C16.2942 490.196 16.6884 490.032 17.0993 490.032C26.3262 490.047 35.1709 493.72 41.6953 500.247C48.2197 506.773 51.8915 515.621 51.9061 524.851Z" fill="#E6D6B5"/>
<path d="M163.021 532.546C163.038 532.752 163.008 532.959 162.931 533.152C162.854 533.344 162.733 533.515 162.578 533.653L154.886 541.402C154.742 541.55 154.57 541.667 154.38 541.747C154.19 541.827 153.986 541.868 153.78 541.868C153.574 541.868 153.369 541.827 153.179 541.747C152.989 541.667 152.817 541.55 152.673 541.402L144.981 533.653C144.835 533.513 144.72 533.346 144.64 533.16C144.561 532.975 144.521 532.775 144.521 532.573C144.521 532.371 144.561 532.172 144.64 531.986C144.72 531.801 144.835 531.633 144.981 531.494L152.673 523.744C152.817 523.597 152.989 523.48 153.179 523.4C153.369 523.32 153.574 523.279 153.78 523.279C153.986 523.279 154.19 523.32 154.38 523.4C154.57 523.48 154.742 523.597 154.886 523.744L162.578 531.494C162.726 531.625 162.842 531.788 162.918 531.97C162.995 532.152 163.03 532.348 163.021 532.546ZM153.78 538.081L159.313 532.546L153.78 527.01L148.246 532.546L153.78 538.081Z" fill="#E6D6B5"/>
<path d="M178.462 532.546C178.48 532.752 178.449 532.959 178.372 533.152C178.295 533.344 178.174 533.515 178.019 533.653L170.272 541.402C170.128 541.55 169.956 541.667 169.766 541.747C169.576 541.827 169.372 541.868 169.165 541.868C168.959 541.868 168.755 541.827 168.565 541.747C168.375 541.667 168.203 541.55 168.059 541.402L160.367 533.653C160.221 533.513 160.105 533.346 160.026 533.16C159.947 532.975 159.906 532.775 159.906 532.573C159.906 532.371 159.947 532.172 160.026 531.986C160.105 531.801 160.221 531.633 160.367 531.494L168.059 523.744C168.203 523.597 168.375 523.48 168.565 523.4C168.755 523.32 168.959 523.279 169.165 523.279C169.372 523.279 169.576 523.32 169.766 523.4C169.956 523.48 170.128 523.597 170.272 523.744L177.964 531.494C178.121 531.62 178.248 531.78 178.334 531.962C178.421 532.144 178.464 532.344 178.462 532.546ZM169.221 538.081L174.754 532.546L169.221 527.01L163.687 532.546L169.221 538.081Z" fill="#E6D6B5"/>
<path d="M193.954 532.546C193.961 532.756 193.919 532.965 193.833 533.157C193.747 533.348 193.618 533.518 193.456 533.653L185.764 541.402C185.62 541.55 185.448 541.667 185.258 541.747C185.068 541.827 184.864 541.868 184.658 541.868C184.452 541.868 184.248 541.827 184.057 541.747C183.867 541.667 183.695 541.55 183.551 541.402L175.859 533.653C175.713 533.513 175.598 533.346 175.518 533.16C175.439 532.975 175.398 532.775 175.398 532.573C175.398 532.371 175.439 532.172 175.518 531.986C175.598 531.801 175.713 531.633 175.859 531.494L183.551 523.744C183.695 523.597 183.867 523.48 184.057 523.4C184.248 523.32 184.452 523.279 184.658 523.279C184.864 523.279 185.068 523.32 185.258 523.4C185.448 523.48 185.62 523.597 185.764 523.744L193.456 531.494C193.611 531.622 193.735 531.783 193.821 531.965C193.907 532.146 193.953 532.345 193.954 532.546ZM184.658 538.081L190.191 532.546L184.658 527.01L179.124 532.546L184.658 538.081Z" fill="#E6D6B5"/>
<path d="M209.395 532.546C209.401 532.756 209.36 532.965 209.273 533.157C209.187 533.348 209.058 533.518 208.897 533.653L201.205 541.402C201.061 541.55 200.888 541.667 200.698 541.747C200.508 541.827 200.304 541.868 200.098 541.868C199.892 541.868 199.688 541.827 199.498 541.747C199.308 541.667 199.136 541.55 198.991 541.402L191.3 533.653C191.154 533.513 191.038 533.346 190.959 533.16C190.88 532.975 190.839 532.775 190.839 532.573C190.839 532.371 190.88 532.172 190.959 531.986C191.038 531.801 191.154 531.633 191.3 531.494L198.991 523.744C199.136 523.597 199.308 523.48 199.498 523.4C199.688 523.32 199.892 523.279 200.098 523.279C200.304 523.279 200.508 523.32 200.698 523.4C200.888 523.48 201.061 523.597 201.205 523.744L209.007 531.494C209.142 531.632 209.245 531.798 209.312 531.979C209.379 532.16 209.407 532.353 209.395 532.546ZM200.098 538.081L205.632 532.546L200.098 527.01L194.564 532.546L200.098 538.081Z" fill="#E6D6B5"/>
<path d="M224.834 532.545C224.837 532.75 224.799 532.953 224.723 533.143C224.647 533.333 224.535 533.506 224.391 533.652L216.644 541.402C216.505 541.548 216.337 541.664 216.152 541.743C215.966 541.822 215.767 541.863 215.565 541.863C215.364 541.863 215.164 541.822 214.979 541.743C214.793 541.664 214.626 541.548 214.486 541.402L206.739 533.652C206.593 533.513 206.477 533.345 206.398 533.16C206.319 532.974 206.278 532.774 206.278 532.573C206.278 532.371 206.319 532.171 206.398 531.986C206.477 531.8 206.593 531.633 206.739 531.493L214.486 523.743C214.626 523.598 214.793 523.482 214.979 523.403C215.164 523.323 215.364 523.283 215.565 523.283C215.767 523.283 215.966 523.323 216.152 523.403C216.337 523.482 216.505 523.598 216.644 523.743L224.391 531.493C224.672 531.771 224.831 532.15 224.834 532.545ZM215.538 538.081L221.071 532.545L215.538 527.009L210.004 532.545L215.538 538.081Z" fill="#E6D6B5"/>
<path d="M332.297 532.548C332.297 532.959 332.134 533.353 331.843 533.644C331.553 533.935 331.159 534.098 330.748 534.098H223.284C223.078 534.106 222.873 534.071 222.682 533.996C222.49 533.921 222.316 533.807 222.171 533.661C222.026 533.516 221.912 533.342 221.837 533.15C221.761 532.959 221.727 532.754 221.734 532.548C221.734 532.137 221.898 531.743 222.188 531.452C222.479 531.161 222.873 530.998 223.284 530.998H330.748C331.154 531.012 331.541 531.18 331.828 531.467C332.116 531.755 332.284 532.141 332.297 532.548Z" fill="#E6D6B5"/>
<path d="M3.15422 38.7713L3.15422 242.315C3.19715 242.539 3.19007 242.77 3.13345 242.991C3.07683 243.213 2.97207 243.418 2.82669 243.594C2.68131 243.77 2.4989 243.912 2.29246 244.009C2.08601 244.106 1.86059 244.157 1.63241 244.157C1.40423 244.157 1.17889 244.106 0.972449 244.009C0.766005 243.912 0.583594 243.77 0.438215 243.594C0.292836 243.418 0.188072 243.213 0.131454 242.991C0.074836 242.77 0.0677539 242.539 0.110683 242.315L0.110683 38.7713C0.0677539 38.5471 0.074836 38.3162 0.131454 38.0951C0.188072 37.874 0.292836 37.668 0.438215 37.4921C0.583594 37.3162 0.766005 37.1746 0.972449 37.0774C1.17889 36.9802 1.40423 36.9297 1.63241 36.9297C1.86059 36.9297 2.08601 36.9802 2.29246 37.0774C2.4989 37.1746 2.68131 37.3162 2.82669 37.4921C2.97207 37.668 3.07683 37.874 3.13345 38.0951C3.19007 38.3162 3.19715 38.5471 3.15422 38.7713Z" fill="#E6D6B5"/>
<path d="M155.328 1.68344C155.314 2.09013 155.147 2.47636 154.859 2.7641C154.571 3.05184 154.185 3.2196 153.779 3.2334L38.6783 3.2334C38.2718 3.2196 37.8856 3.05184 37.598 2.7641C37.3103 2.47636 37.1427 2.09013 37.1289 1.68344C37.1289 1.27236 37.2921 0.878076 37.5827 0.5874C37.8732 0.296725 38.2674 0.133477 38.6783 0.133477L153.668 0.133477C153.881 0.118248 154.094 0.147068 154.295 0.218113C154.496 0.289158 154.68 0.400875 154.836 0.54635C154.992 0.691824 155.116 0.867888 155.201 1.06354C155.285 1.25919 155.329 1.47023 155.328 1.68344Z" fill="#E6D6B5"/>
<path d="M18.6498 50.2839L18.6498 242.314C18.636 242.72 18.4683 243.107 18.1807 243.395C17.893 243.682 17.5069 243.85 17.1004 243.864C16.6894 243.864 16.2953 243.7 16.0047 243.41C15.7141 243.119 15.5509 242.725 15.5509 242.314L15.5509 50.2839C15.5431 50.0783 15.5779 49.8732 15.653 49.6817C15.7282 49.4901 15.842 49.3162 15.9874 49.1707C16.1329 49.0251 16.3068 48.9112 16.4983 48.8361C16.6898 48.7609 16.8948 48.7262 17.1004 48.734C17.5113 48.734 17.9054 48.8973 18.1959 49.188C18.4865 49.4787 18.6498 49.8728 18.6498 50.2839Z" fill="#E6D6B5"/>
<path d="M155.328 17.0746C155.315 17.4812 155.147 17.8675 154.859 18.1552C154.572 18.443 154.186 18.6107 153.779 18.6245L50.4099 18.6245C50.2064 18.6245 50.0049 18.5844 49.8169 18.5065C49.629 18.4286 49.4582 18.3144 49.3143 18.1705C49.1704 18.0266 49.0563 17.8557 48.9784 17.6677C48.9005 17.4796 48.8604 17.2781 48.8604 17.0746C48.8527 16.8689 48.8875 16.6639 48.9626 16.4723C49.0377 16.2807 49.1515 16.1068 49.297 15.9613C49.4424 15.8158 49.6164 15.7019 49.8079 15.6267C49.9994 15.5516 50.2043 15.5168 50.4099 15.5246L153.668 15.5246C153.881 15.5094 154.094 15.5382 154.295 15.6092C154.496 15.6803 154.68 15.792 154.836 15.9375C154.992 16.0829 155.116 16.259 155.201 16.4547C155.286 16.6503 155.329 16.8613 155.328 17.0746Z" fill="#E6D6B5"/>
<path d="M18.6481 69.6575L18.6481 270.987C18.6343 271.394 18.4666 271.78 18.179 272.068C17.8913 272.356 17.5052 272.523 17.0987 272.537C16.6878 272.537 16.2936 272.374 16.003 272.083C15.7125 271.792 15.5492 271.398 15.5492 270.987L15.5492 70.2664L0.552971 55.3203C0.405731 55.176 0.288744 55.0037 0.208889 54.8136C0.129034 54.6235 0.0878906 54.4194 0.0878906 54.2132C0.0878906 54.007 0.129034 53.8028 0.208889 53.6127C0.288744 53.4226 0.405731 53.2503 0.552971 53.106C0.692439 52.9603 0.85996 52.8444 1.04541 52.7652C1.23086 52.686 1.43035 52.6451 1.63199 52.6451C1.83364 52.6451 2.03322 52.686 2.21866 52.7652C2.40411 52.8444 2.57163 52.9603 2.7111 53.106L18.15 68.5504C18.3058 68.6898 18.4307 68.8604 18.5165 69.0511C18.6023 69.2418 18.6472 69.4483 18.6481 69.6575Z" fill="#E6D6B5"/>
<path d="M31.9295 270.991C31.9235 271.29 31.8314 271.58 31.6642 271.828C31.497 272.075 31.2619 272.269 30.9871 272.386C30.7124 272.503 30.4096 272.538 30.1154 272.487C29.8212 272.436 29.548 272.301 29.3287 272.098L0.664299 243.424C0.51706 243.279 0.400072 243.107 0.320217 242.917C0.240362 242.727 0.199219 242.523 0.199219 242.317C0.199219 242.11 0.240362 241.906 0.320217 241.716C0.400072 241.526 0.51706 241.354 0.664299 241.209C0.803767 241.064 0.971204 240.948 1.15665 240.869C1.3421 240.789 1.54168 240.749 1.74332 240.749C1.94496 240.749 2.14454 240.789 2.32999 240.869C2.51544 240.948 2.68296 241.064 2.82243 241.209L31.4868 269.884C31.6326 270.028 31.7472 270.201 31.8233 270.391C31.8995 270.582 31.9357 270.786 31.9295 270.991Z" fill="#E6D6B5"/>
<path d="M40.2309 1.68197C40.2309 11.9589 36.1498 21.8149 28.8855 29.0818C21.6211 36.3487 11.7685 40.4312 1.49514 40.4312C1.09387 40.4168 0.713829 40.2472 0.435117 39.9581C0.156405 39.6689 0.000769157 39.2829 0.00102531 38.8812C-0.00641739 38.6803 0.0267201 38.48 0.0984659 38.2922C0.170212 38.1044 0.27908 37.9331 0.418567 37.7884C0.558055 37.6437 0.725354 37.5286 0.91033 37.4501C1.09531 37.3715 1.29419 37.3311 1.49514 37.3312C10.9128 37.3166 19.9405 33.5676 26.5998 26.906C33.2591 20.2444 37.0067 11.2136 37.0213 1.7927C37.0213 1.38163 37.1846 0.987343 37.4752 0.696667C37.7658 0.405991 38.1598 0.242744 38.5708 0.242744C38.7759 0.219704 38.9835 0.239361 39.1807 0.300602C39.3778 0.361843 39.56 0.463291 39.716 0.598515C39.872 0.733738 39.9983 0.899837 40.0869 1.08631C40.1755 1.27278 40.2245 1.4756 40.2309 1.68197Z" fill="#E6D6B5"/>
<path d="M51.9061 17.0715C51.9061 26.3111 48.2407 35.1732 41.7148 41.7118C35.1888 48.2504 26.3357 51.9311 17.0993 51.9457C16.8684 51.9799 16.6328 51.9614 16.41 51.8917C16.1873 51.822 15.9832 51.7029 15.813 51.5432C15.6427 51.3835 15.5107 51.1874 15.4268 50.9696C15.3429 50.7517 15.3093 50.5177 15.3285 50.285C15.3207 50.0794 15.3555 49.8744 15.4306 49.6828C15.5057 49.4912 15.6196 49.3173 15.765 49.1718C15.9105 49.0263 16.0844 48.9124 16.2759 48.8372C16.4674 48.7621 16.6724 48.7273 16.8779 48.7351C25.2976 48.7205 33.3682 45.3681 39.3218 39.4124C45.2754 33.4568 48.6266 25.3833 48.6412 16.9607C48.5983 16.7365 48.6054 16.5057 48.662 16.2846C48.7186 16.0634 48.8234 15.8576 48.9688 15.6816C49.1142 15.5057 49.2966 15.3641 49.503 15.2668C49.7095 15.1696 49.9348 15.1192 50.163 15.1192C50.3912 15.1192 50.6165 15.1696 50.8229 15.2668C51.0294 15.3641 51.2119 15.5057 51.3573 15.6816C51.5026 15.8576 51.6073 16.0634 51.6639 16.2846C51.7205 16.5057 51.7277 16.7365 51.6848 16.9607L51.9061 17.0715Z" fill="#E6D6B5"/>
<path d="M163.021 9.37707C163.038 9.58335 163.008 9.7909 162.931 9.98312C162.854 10.1753 162.733 10.3469 162.578 10.4842L154.886 18.2341C154.742 18.3814 154.57 18.4983 154.38 18.5782C154.19 18.6581 153.986 18.6992 153.78 18.6992C153.574 18.6992 153.369 18.6581 153.179 18.5782C152.989 18.4983 152.817 18.3814 152.673 18.2341L144.981 10.4842C144.835 10.3447 144.72 10.1771 144.64 9.99157C144.561 9.80605 144.521 9.60649 144.521 9.40478C144.521 9.20306 144.561 9.00342 144.64 8.8179C144.72 8.63239 144.835 8.46481 144.981 8.3253L152.673 0.575493C152.817 0.428202 152.989 0.311174 153.179 0.231291C153.369 0.151409 153.574 0.11025 153.78 0.11025C153.986 0.11025 154.19 0.151409 154.38 0.231291C154.57 0.311174 154.742 0.428202 154.886 0.575493L162.578 8.3253C162.726 8.45669 162.842 8.61925 162.918 8.80118C162.995 8.98311 163.03 9.17987 163.021 9.37707ZM153.78 14.9127L159.313 9.37707L153.78 3.84147L148.246 9.37707L153.78 14.9127Z" fill="#E6D6B5"/>
<path d="M178.46 9.37707C178.478 9.58335 178.447 9.7909 178.37 9.98312C178.293 10.1753 178.173 10.3469 178.018 10.4842L170.326 18.2341C170.182 18.3814 170.009 18.4983 169.819 18.5782C169.629 18.6581 169.425 18.6992 169.219 18.6992C169.013 18.6992 168.809 18.6581 168.619 18.5782C168.429 18.4983 168.257 18.3814 168.112 18.2341L160.421 10.4842C160.275 10.3447 160.159 10.1771 160.08 9.99157C160.001 9.80605 159.96 9.60649 159.96 9.40478C159.96 9.20306 160.001 9.00342 160.08 8.8179C160.159 8.63239 160.275 8.46481 160.421 8.3253L168.112 0.575493C168.257 0.428202 168.429 0.311174 168.619 0.231291C168.809 0.151409 169.013 0.11025 169.219 0.11025C169.425 0.11025 169.629 0.151409 169.819 0.231291C170.009 0.311174 170.182 0.428202 170.326 0.575493L178.018 8.3253C178.165 8.45669 178.281 8.61925 178.358 8.80118C178.434 8.98311 178.469 9.17987 178.46 9.37707ZM169.219 14.9127L174.753 9.37707L169.219 3.84147L163.685 9.37707L169.219 14.9127Z" fill="#E6D6B5"/>
<path d="M193.954 9.37707C193.961 9.58734 193.919 9.79635 193.833 9.98819C193.747 10.18 193.618 10.3496 193.456 10.4842L185.764 18.2341C185.62 18.3814 185.448 18.4983 185.258 18.5782C185.068 18.6581 184.864 18.6992 184.658 18.6992C184.452 18.6992 184.248 18.6581 184.057 18.5782C183.867 18.4983 183.695 18.3814 183.551 18.2341L175.859 10.4842C175.713 10.3447 175.598 10.1771 175.518 9.99157C175.439 9.80605 175.398 9.60649 175.398 9.40478C175.398 9.20306 175.439 9.00342 175.518 8.8179C175.598 8.63239 175.713 8.46481 175.859 8.3253L183.551 0.575493C183.695 0.428202 183.867 0.311174 184.057 0.231291C184.248 0.151409 184.452 0.11025 184.658 0.11025C184.864 0.11025 185.068 0.151409 185.258 0.231291C185.448 0.311174 185.62 0.428202 185.764 0.575493L193.456 8.3253C193.611 8.45391 193.735 8.61465 193.821 8.79628C193.907 8.97791 193.953 9.1761 193.954 9.37707ZM184.658 14.9127L190.191 9.37707L184.658 3.84147L179.124 9.37707L184.658 14.9127Z" fill="#E6D6B5"/>
<path d="M209.395 9.37707C209.401 9.58734 209.36 9.79635 209.273 9.98819C209.187 10.18 209.058 10.3496 208.897 10.4842L201.205 18.2341C201.061 18.3814 200.888 18.4983 200.698 18.5782C200.508 18.6581 200.304 18.6992 200.098 18.6992C199.892 18.6992 199.688 18.6581 199.498 18.5782C199.308 18.4983 199.136 18.3814 198.991 18.2341L191.3 10.4842C191.154 10.3447 191.038 10.1771 190.959 9.99157C190.88 9.80605 190.839 9.60649 190.839 9.40478C190.839 9.20306 190.88 9.00342 190.959 8.8179C191.038 8.63239 191.154 8.46481 191.3 8.3253L198.991 0.575493C199.136 0.428202 199.308 0.311174 199.498 0.231291C199.688 0.151409 199.892 0.11025 200.098 0.11025C200.304 0.11025 200.508 0.151409 200.698 0.231291C200.888 0.311174 201.061 0.428202 201.205 0.575493L208.897 8.3253C209.051 8.45391 209.176 8.61465 209.262 8.79628C209.348 8.97791 209.393 9.1761 209.395 9.37707ZM200.098 14.9127L205.632 9.37707L200.098 3.84147L194.564 9.37707L200.098 14.9127Z" fill="#E6D6B5"/>
<path d="M224.834 9.3765C224.837 9.58113 224.799 9.78433 224.723 9.97435C224.647 10.1644 224.535 10.3374 224.391 10.4836L216.644 18.2335C216.505 18.3792 216.337 18.495 216.152 18.5742C215.966 18.6534 215.767 18.6943 215.565 18.6943C215.364 18.6943 215.164 18.6534 214.979 18.5742C214.793 18.495 214.626 18.3792 214.486 18.2335L206.739 10.4836C206.593 10.3441 206.477 10.1765 206.398 9.99099C206.319 9.80548 206.278 9.60591 206.278 9.4042C206.278 9.20249 206.319 9.00284 206.398 8.81733C206.477 8.63181 206.593 8.46424 206.739 8.32472L214.542 0.464178C214.681 0.318499 214.849 0.202559 215.034 0.123356C215.219 0.0441551 215.419 0.00333023 215.621 0.00333023C215.822 0.00333023 216.022 0.0441551 216.207 0.123356C216.393 0.202559 216.56 0.318499 216.7 0.464178L224.447 8.21398C224.59 8.36937 224.698 8.55335 224.765 8.75372C224.832 8.9541 224.855 9.16635 224.834 9.3765ZM215.538 14.9121L221.071 9.3765L215.538 3.8409L210.004 9.3765L215.538 14.9121Z" fill="#E6D6B5"/>
<path d="M332.297 9.37524C332.297 9.78632 332.134 10.1805 331.843 10.4712C331.553 10.7619 331.159 10.9252 330.748 10.9252L223.284 10.9252C223.078 10.933 222.873 10.8982 222.682 10.8231C222.49 10.7479 222.316 10.634 222.171 10.4885C222.026 10.343 221.912 10.1691 221.837 9.97749C221.761 9.78592 221.727 9.58087 221.734 9.37524C221.734 8.96417 221.898 8.56988 222.188 8.27921C222.479 7.98853 222.873 7.82528 223.284 7.82528L330.748 7.82528C331.154 7.83908 331.541 8.00684 331.828 8.29458C332.116 8.58232 332.284 8.96855 332.297 9.37524Z" fill="#E6D6B5"/>
<path d="M410.1 532.678C410.103 532.882 410.065 533.086 409.989 533.276C409.913 533.466 409.8 533.639 409.657 533.785L401.91 541.535C401.766 541.682 401.593 541.799 401.403 541.879C401.213 541.959 401.009 542 400.803 542C400.597 542 400.393 541.959 400.203 541.879C400.013 541.799 399.841 541.682 399.696 541.535L392.005 533.785C391.859 533.645 391.743 533.478 391.664 533.292C391.585 533.107 391.544 532.907 391.544 532.706C391.544 532.504 391.585 532.304 391.664 532.119C391.743 531.933 391.859 531.766 392.005 531.626L399.696 523.876C399.841 523.729 400.013 523.612 400.203 523.532C400.393 523.452 400.597 523.411 400.803 523.411C401.009 523.411 401.213 523.452 401.403 523.532C401.593 523.612 401.766 523.729 401.91 523.876L409.657 531.626C409.938 531.904 410.097 532.282 410.1 532.678ZM400.803 538.213L406.337 532.678L400.803 527.142L395.269 532.678L400.803 538.213Z" fill="#E6D6B5"/>
<path d="M394.661 532.678C394.668 532.888 394.626 533.097 394.54 533.289C394.454 533.481 394.325 533.65 394.163 533.785L386.471 541.535C386.327 541.682 386.155 541.799 385.965 541.879C385.775 541.959 385.571 542 385.365 542C385.159 542 384.955 541.959 384.765 541.879C384.574 541.799 384.402 541.682 384.258 541.535L376.566 533.785C376.421 533.645 376.305 533.478 376.225 533.292C376.146 533.107 376.105 532.907 376.105 532.706C376.105 532.504 376.146 532.304 376.225 532.119C376.305 531.933 376.421 531.766 376.566 531.626L384.258 523.876C384.402 523.729 384.574 523.612 384.765 523.532C384.955 523.452 385.159 523.411 385.365 523.411C385.571 523.411 385.775 523.452 385.965 523.532C386.155 523.612 386.327 523.729 386.471 523.876L394.163 531.626C394.318 531.755 394.442 531.915 394.528 532.097C394.614 532.279 394.66 532.477 394.661 532.678ZM385.365 538.213L390.898 532.678L385.365 527.142L379.831 532.678L385.365 538.213Z" fill="#E6D6B5"/>
<path d="M379.167 532.678C379.184 532.884 379.153 533.092 379.076 533.284C379 533.476 378.879 533.648 378.724 533.785L371.032 541.535C370.888 541.682 370.716 541.799 370.526 541.879C370.336 541.959 370.131 542 369.925 542C369.719 542 369.515 541.959 369.325 541.879C369.135 541.799 368.963 541.682 368.819 541.535L361.127 533.785C360.981 533.645 360.865 533.478 360.786 533.292C360.707 533.107 360.666 532.907 360.666 532.706C360.666 532.504 360.707 532.304 360.786 532.119C360.865 531.933 360.981 531.766 361.127 531.626L368.819 523.876C368.963 523.729 369.135 523.612 369.325 523.532C369.515 523.452 369.719 523.411 369.925 523.411C370.131 523.411 370.336 523.452 370.526 523.532C370.716 523.612 370.888 523.729 371.032 523.876L378.779 531.626C378.916 531.763 379.022 531.927 379.089 532.109C379.156 532.291 379.182 532.485 379.167 532.678ZM369.925 538.213L375.459 532.678L369.925 527.142L364.392 532.678L369.925 538.213Z" fill="#E6D6B5"/>
<path d="M363.726 532.678C363.744 532.884 363.713 533.092 363.636 533.284C363.559 533.476 363.438 533.648 363.283 533.785L355.592 541.535C355.447 541.682 355.275 541.799 355.085 541.879C354.895 541.959 354.691 542 354.485 542C354.279 542 354.075 541.959 353.885 541.879C353.695 541.799 353.522 541.682 353.378 541.535L345.686 533.785C345.541 533.645 345.425 533.478 345.346 533.292C345.266 533.107 345.226 532.907 345.226 532.706C345.226 532.504 345.266 532.304 345.346 532.119C345.425 531.933 345.541 531.766 345.686 531.626L353.378 523.876C353.522 523.729 353.695 523.612 353.885 523.532C354.075 523.452 354.279 523.411 354.485 523.411C354.691 523.411 354.895 523.452 355.085 523.532C355.275 523.612 355.447 523.729 355.592 523.876L363.283 531.626C363.431 531.757 363.547 531.92 363.623 532.102C363.7 532.284 363.735 532.481 363.726 532.678ZM354.485 538.213L360.018 532.678L354.485 527.142L348.951 532.678L354.485 538.213Z" fill="#E6D6B5"/>
<path d="M348.288 532.677C348.291 532.882 348.254 533.085 348.178 533.275C348.102 533.465 347.989 533.638 347.846 533.784L340.099 541.534C339.959 541.68 339.792 541.796 339.606 541.875C339.421 541.954 339.221 541.995 339.02 541.995C338.818 541.995 338.618 541.954 338.433 541.875C338.247 541.796 338.08 541.68 337.94 541.534L330.193 533.784C329.925 533.489 329.776 533.104 329.776 532.705C329.776 532.306 329.925 531.921 330.193 531.626L337.94 523.876C338.08 523.73 338.247 523.614 338.433 523.535C338.618 523.456 338.818 523.415 339.02 523.415C339.221 523.415 339.421 523.456 339.606 523.535C339.792 523.614 339.959 523.73 340.099 523.876L347.846 531.626C348.127 531.904 348.286 532.282 348.288 532.677ZM339.047 538.213L344.581 532.677L339.047 527.142L333.514 532.677L339.047 538.213Z" fill="#E6D6B5"/>
<path d="M517.151 532.718C517.159 532.924 517.124 533.129 517.049 533.321C516.974 533.512 516.86 533.686 516.714 533.832C516.569 533.977 516.395 534.091 516.203 534.166C516.012 534.241 515.807 534.276 515.601 534.268H408.137C407.726 534.268 407.332 534.105 407.042 533.814C406.751 533.524 406.588 533.13 406.588 532.718C406.602 532.312 406.769 531.926 407.057 531.638C407.345 531.35 407.731 531.182 408.137 531.169H515.601C516.012 531.169 516.406 531.332 516.697 531.622C516.987 531.913 517.151 532.307 517.151 532.718Z" fill="#E6D6B5"/>
<path d="M410.1 9.50988C410.103 9.71452 410.065 9.91772 409.989 10.1077C409.913 10.2978 409.8 10.4708 409.657 10.617L401.91 18.3669C401.766 18.5142 401.593 18.6311 401.403 18.711C401.213 18.7909 401.009 18.832 400.803 18.832C400.597 18.832 400.393 18.7909 400.203 18.711C400.013 18.6311 399.841 18.5142 399.696 18.3669L392.005 10.617C391.859 10.4775 391.743 10.3099 391.664 10.1244C391.585 9.93887 391.544 9.7393 391.544 9.53759C391.544 9.33588 391.585 9.13623 391.664 8.95072C391.743 8.7652 391.859 8.59762 392.005 8.45811L399.696 0.708305C399.841 0.561014 400.013 0.443987 400.203 0.364103C400.393 0.284222 400.597 0.243063 400.803 0.243063C401.009 0.243063 401.213 0.284222 401.403 0.364103C401.593 0.443987 401.766 0.561014 401.91 0.708305L409.657 8.45811C409.938 8.73632 410.097 9.11452 410.1 9.50988ZM400.803 15.0455L406.337 9.50988L400.803 3.97429L395.269 9.50988L400.803 15.0455Z" fill="#E6D6B5"/>
<path d="M394.661 9.50988C394.668 9.72015 394.626 9.92916 394.54 10.121C394.454 10.3128 394.325 10.4825 394.163 10.617L386.471 18.3669C386.327 18.5142 386.155 18.6311 385.965 18.711C385.775 18.7909 385.571 18.832 385.365 18.832C385.159 18.832 384.955 18.7909 384.765 18.711C384.574 18.6311 384.402 18.5142 384.258 18.3669L376.566 10.617C376.421 10.4775 376.305 10.3099 376.225 10.1244C376.146 9.93887 376.105 9.7393 376.105 9.53759C376.105 9.33588 376.146 9.13623 376.225 8.95072C376.305 8.7652 376.421 8.59762 376.566 8.45811L384.313 0.59757C384.458 0.450279 384.63 0.333252 384.82 0.253368C385.01 0.173485 385.214 0.132328 385.42 0.132328C385.626 0.132328 385.83 0.173485 386.02 0.253368C386.21 0.333252 386.382 0.450279 386.527 0.59757L394.219 8.34737C394.378 8.49313 394.501 8.67419 394.578 8.87605C394.655 9.07791 394.683 9.295 394.661 9.50988ZM385.365 15.0455L390.898 9.50988L385.365 3.97429L379.831 9.50988L385.365 15.0455Z" fill="#E6D6B5"/>
<path d="M379.167 9.50988C379.184 9.71617 379.153 9.92371 379.076 10.1159C379 10.3082 378.879 10.4797 378.724 10.617L371.032 18.3669C370.888 18.5142 370.716 18.6311 370.526 18.711C370.336 18.7909 370.131 18.832 369.925 18.832C369.719 18.832 369.515 18.7909 369.325 18.711C369.135 18.6311 368.963 18.5142 368.819 18.3669L361.127 10.617C360.981 10.4775 360.865 10.3099 360.786 10.1244C360.707 9.93887 360.666 9.7393 360.666 9.53759C360.666 9.33588 360.707 9.13623 360.786 8.95072C360.865 8.7652 360.981 8.59762 361.127 8.45811L368.819 0.708305C368.963 0.561014 369.135 0.443987 369.325 0.364103C369.515 0.284222 369.719 0.243063 369.925 0.243063C370.131 0.243063 370.336 0.284222 370.526 0.364103C370.716 0.443987 370.888 0.561014 371.032 0.708305L378.724 8.45811C378.871 8.58951 378.987 8.75206 379.064 8.93399C379.14 9.11593 379.176 9.31268 379.167 9.50988ZM369.925 15.0455L375.459 9.50988L369.925 3.97429L364.392 9.50988L369.925 15.0455Z" fill="#E6D6B5"/>
<path d="M363.726 9.50988C363.744 9.71617 363.713 9.92371 363.636 10.1159C363.559 10.3082 363.438 10.4797 363.283 10.617L355.592 18.3669C355.447 18.5142 355.275 18.6311 355.085 18.711C354.895 18.7909 354.691 18.832 354.485 18.832C354.279 18.832 354.075 18.7909 353.885 18.711C353.695 18.6311 353.522 18.5142 353.378 18.3669L345.686 10.617C345.541 10.4775 345.425 10.3099 345.346 10.1244C345.266 9.93887 345.226 9.7393 345.226 9.53759C345.226 9.33588 345.266 9.13623 345.346 8.95072C345.425 8.7652 345.541 8.59762 345.686 8.45811L353.378 0.708305C353.522 0.561014 353.695 0.443987 353.885 0.364103C354.075 0.284222 354.279 0.243063 354.485 0.243063C354.691 0.243063 354.895 0.284222 355.085 0.364103C355.275 0.443987 355.447 0.561014 355.592 0.708305L363.283 8.45811C363.431 8.58951 363.547 8.75206 363.623 8.93399C363.7 9.11593 363.735 9.31268 363.726 9.50988ZM354.485 15.0455L360.018 9.50988L354.485 3.97429L348.951 9.50988L354.485 15.0455Z" fill="#E6D6B5"/>
<path d="M348.288 9.50931C348.291 9.71395 348.254 9.91714 348.178 10.1072C348.102 10.2972 347.989 10.4702 347.846 10.6164L340.099 18.3663C339.959 18.512 339.792 18.6278 339.606 18.707C339.421 18.7862 339.221 18.8271 339.02 18.8271C338.818 18.8271 338.618 18.7862 338.433 18.707C338.247 18.6278 338.08 18.512 337.94 18.3663L330.193 10.6164C329.925 10.321 329.776 9.93617 329.776 9.53701C329.776 9.13786 329.925 8.75298 330.193 8.45753L337.94 0.707729C338.08 0.562048 338.247 0.446108 338.433 0.366907C338.618 0.287704 338.818 0.24688 339.02 0.24688C339.221 0.24688 339.421 0.287704 339.606 0.366907C339.792 0.446108 339.959 0.562048 340.099 0.707729L347.846 8.45753C348.127 8.73575 348.286 9.11395 348.288 9.50931ZM339.047 15.0449L344.581 9.50931L339.047 3.97371L333.514 9.50931L339.047 15.0449Z" fill="#E6D6B5"/>
<path d="M517.151 9.54468C517.159 9.75031 517.124 9.95536 517.049 10.1469C516.974 10.3385 516.86 10.5124 516.714 10.6579C516.569 10.8035 516.395 10.9174 516.203 10.9925C516.012 11.0677 515.807 11.1024 515.601 11.0946L408.137 11.0946C407.726 11.0946 407.332 10.9313 407.042 10.6406C406.751 10.35 406.588 9.95575 406.588 9.54468C406.602 9.13799 406.769 8.75175 407.057 8.46401C407.345 8.17627 407.731 8.00851 408.137 7.99472L515.601 7.99472C516.012 7.99472 516.406 8.15796 516.697 8.44864C516.987 8.73931 517.151 9.1336 517.151 9.54468Z" fill="#E6D6B5"/>
</svg>
