<svg width="95" height="46" viewBox="0 0 95 46" fill="none" xmlns="http://www.w3.org/2000/svg">
<path d="M9.57419 1.16L18.9822 1.448L23.9262 1.352C24.0222 1.832 24.0702 2.472 24.0702 3.272C24.0702 4.072 23.9422 4.648 23.6862 5C23.4622 5.352 23.0622 5.528 22.4862 5.528C21.9102 5.528 20.6782 5.448 18.7902 5.288C16.9342 5.128 15.5582 5.048 14.6622 5.048L12.9342 5.144C12.8062 6.36 12.0382 10.248 10.6302 16.808C13.0622 16.584 15.0942 16.472 16.7262 16.472C18.3582 16.472 19.6222 16.6 20.5182 16.856C20.4542 18.2 20.1662 19.352 19.6542 20.312C18.2782 20.024 16.6462 19.88 14.7582 19.88C12.8702 19.88 11.2702 19.976 9.95819 20.168C8.77419 25.96 8.18219 30.36 8.18219 33.368V34.184C7.03019 34.824 4.59819 35.144 0.88619 35.144H0.40619C0.40619 32.968 1.14219 28.44 2.61419 21.56C4.11819 14.68 5.03019 9.736 5.35019 6.728C5.35019 6.216 5.19019 5.608 4.87019 4.904C4.55019 4.168 4.21419 3.576 3.86219 3.128L3.38219 2.456L3.52619 1.736C5.25419 1.384 7.27019 1.192 9.57419 1.16ZM22.5961 34.376C22.3721 35.08 21.8601 35.432 21.0601 35.432C20.2921 35.432 19.4121 35 18.4201 34.136C19.3801 31.32 21.4121 26.792 24.5161 20.552C27.6201 14.28 29.6361 9.592 30.5641 6.488C30.6921 5.976 30.7561 5.624 30.7561 5.432C30.7561 4.952 30.4041 4.216 29.7001 3.224L29.3161 2.696L29.4121 2.072C32.1321 1.304 35.1401 0.919998 38.4361 0.919998L41.3641 1.112C41.7161 1.592 41.9881 2.328 42.1801 3.32C42.6921 5.752 42.9481 12.008 42.9481 22.088C42.9481 25.992 43.2841 28.744 43.9561 30.344C44.2121 30.952 44.4681 31.256 44.7241 31.256C44.9801 31.256 45.7641 30.936 47.0761 30.296L47.7001 30.008L48.6601 31.736C47.4441 32.92 46.0841 33.864 44.5801 34.568C43.1081 35.24 41.7481 35.576 40.5001 35.576C37.2681 35.576 35.6521 33.064 35.6521 28.04V24.248C34.8201 24.056 33.5561 23.96 31.8601 23.96C30.1641 23.96 28.3081 24.12 26.2921 24.44C24.6921 28.152 23.4601 31.464 22.5961 34.376ZM35.7481 20.984L35.7961 15.416C35.7961 10.552 35.5881 7.256 35.1721 5.528C34.9161 5.528 34.7241 5.56 34.5961 5.624C33.7001 8.088 32.8521 10.184 32.0521 11.912C31.2841 13.608 30.4361 15.432 29.5081 17.384C28.6121 19.304 28.0521 20.504 27.8281 20.984H35.7481ZM72.1403 45.752C71.1163 45.752 69.0843 44.872 66.0443 43.112C63.0363 41.384 60.9403 40.52 59.7563 40.52C57.7723 42.696 56.3323 43.784 55.4363 43.784C55.1163 43.784 54.5243 43.272 53.6603 42.248C52.8283 41.224 52.4123 40.44 52.4123 39.896C52.4123 39.352 52.9723 38.664 54.0923 37.832C55.2123 37.032 56.5083 36.632 57.9803 36.632C59.4843 36.632 61.9483 37.112 65.3723 38.072C68.7963 39.064 71.4683 39.56 73.3883 39.56C73.9643 39.56 74.3643 39.432 74.5883 39.176C74.8443 38.952 75.0843 38.648 75.3083 38.264C75.5643 37.88 75.7883 37.512 75.9803 37.16C76.2043 36.84 76.3323 36.68 76.3643 36.68L77.9003 37.16C77.9003 42.888 75.9803 45.752 72.1403 45.752ZM75.1163 5.144C75.9803 6.424 76.6203 7.784 77.0363 9.224C77.4523 10.632 77.6603 12.2 77.6603 13.928C77.6603 15.656 77.4683 17.496 77.0843 19.448C76.7003 21.4 76.0603 23.352 75.1643 25.304C74.2683 27.256 73.1803 28.984 71.9003 30.488C70.6203 31.992 69.0043 33.224 67.0523 34.184C65.1003 35.112 62.9563 35.576 60.6203 35.576C57.1963 35.576 54.5403 34.36 52.6523 31.928C50.7643 29.464 49.8203 26.312 49.8203 22.472C49.8203 18.6 50.4923 15.064 51.8363 11.864C53.2123 8.632 55.1643 6.008 57.6923 3.992C60.2523 1.944 63.0843 0.919998 66.1883 0.919998C68.2363 0.919998 70.0283 1.304 71.5643 2.072C73.1003 2.84 74.2843 3.864 75.1163 5.144ZM62.0603 32.312C63.5643 32.312 64.8283 31.656 65.8523 30.344C66.9083 29.032 67.7083 27.32 68.2523 25.208C69.3403 21.048 69.8843 16.776 69.8843 12.392C69.8843 6.92 68.4123 4.184 65.4683 4.184C63.7723 4.184 62.3163 5.176 61.1003 7.16C58.7643 10.936 57.5963 16.12 57.5963 22.712C57.5963 26.328 57.8043 28.568 58.2203 29.432C58.4123 29.912 58.6683 30.408 58.9883 30.92C59.5643 31.848 60.5883 32.312 62.0603 32.312ZM94.1599 28.712C94.1599 30.728 93.2639 32.376 91.4719 33.656C89.7119 34.936 87.6959 35.576 85.4239 35.576C83.1519 35.576 81.3439 35.096 79.9999 34.136C78.6879 33.176 78.0319 32.328 78.0319 31.592C78.0319 31.144 78.5919 30.424 79.7119 29.432C80.8319 28.408 81.7759 27.784 82.5439 27.56C84.1439 28.744 85.4559 30.616 86.4799 33.176C87.6639 33.08 88.2559 32.52 88.2559 31.496C88.2559 30.024 86.9599 27.944 84.3679 25.256C81.7759 22.536 80.4799 20.376 80.4799 18.776C80.4799 17.176 81.1999 15.944 82.6399 15.08C84.0799 14.184 85.8079 13.736 87.8239 13.736C89.8719 13.736 91.4079 14.104 92.4319 14.84C93.4559 15.544 93.9679 16.52 93.9679 17.768C93.9679 18.984 92.9919 20.68 91.0399 22.856C91.2639 23.08 91.5519 23.384 91.9039 23.768C92.2559 24.12 92.7199 24.808 93.2959 25.832C93.8719 26.856 94.1599 27.816 94.1599 28.712ZM89.5519 21.176C90.8959 20.024 91.5679 18.888 91.5679 17.768C91.5679 16.648 90.7999 16.088 89.2639 16.088C88.5279 16.088 87.9199 16.248 87.4399 16.568C86.9599 16.856 86.7199 17.192 86.7199 17.576C86.7199 18.28 87.4239 19.272 88.8319 20.552L89.5519 21.176Z" fill="#E6D6B5"/>
</svg>
