<svg width="221" height="14" viewBox="0 0 221 14" fill="none" xmlns="http://www.w3.org/2000/svg">
<g id="Isolation_Mode" clip-path="url(#clip0_652_133)">
<path id="Vector" d="M116.842 5.12095L114.962 7.00098L116.842 8.8812L118.722 7.00117L116.842 5.12095Z" fill="#E6D6B5"/>
<path id="Vector_2" d="M123.483 4.14207L120.624 7.00098L123.483 9.85988L126.342 7.00098L123.483 4.14207Z" fill="#E6D6B5"/>
<path id="Vector_3" d="M130.742 5.12095L128.862 7.00098L130.742 8.88128L132.622 7.00125L130.742 5.12095Z" fill="#E6D6B5"/>
<path id="Vector_4" d="M138.219 4.15044L135.15 6.78271L137.782 9.85162L140.851 7.21935L138.219 4.15044Z" fill="#E6D6B5"/>
<path id="Vector_5" d="M96.9566 5.11979L95.0763 7L96.9566 8.88021L98.8368 7L96.9566 5.11979Z" fill="#E6D6B5"/>
<path id="Vector_6" d="M89.6972 4.14207L86.8383 7.00098L89.6972 9.85988L92.5562 7.00098L89.6972 4.14207Z" fill="#E6D6B5"/>
<path id="Vector_7" d="M82.4399 5.12011L80.5596 7L82.4396 8.88036L84.3199 7.00047L82.4399 5.12011Z" fill="#E6D6B5"/>
<path id="Vector_8" d="M75.3982 4.15039L72.3292 6.78271L74.9616 9.85159L78.0306 7.21926L75.3982 4.15039Z" fill="#E6D6B5"/>
<path id="Vector_9" d="M107.02 0.00104466L100.02 7.00098L107.02 14.0011L114.02 7.00117L107.02 0.00104466Z" fill="#E6D6B5"/>
<path id="Vector_10" d="M138.987 5.77344L220.257 6.74674V7.25547L138.987 8.22877V5.77344Z" fill="#E6D6B5"/>
<path id="Vector_11" d="M74.1146 8.22828L0.742432 7.25498V6.74625L74.1146 5.77295V8.22828Z" fill="#E6D6B5"/>
</g>
<defs>
<clipPath id="clip0_652_133">
<rect width="219.516" height="14" fill="white" transform="translate(0.742188)"/>
</clipPath>
</defs>
</svg>
