<svg width="16" height="16" viewBox="0 0 16 16" fill="none" xmlns="http://www.w3.org/2000/svg">
<path id="Star 2" d="M7.05176 1.33137C7.3565 0.421458 8.6435 0.421456 8.94824 1.33137L10.066 4.66886C10.2015 5.07338 10.5786 5.34741 11.0052 5.35125L14.5248 5.38294C15.4843 5.39158 15.882 6.6156 15.1108 7.1866L12.2821 9.28097C11.9392 9.53482 11.7951 9.97822 11.9233 10.3851L12.9808 13.7422C13.2691 14.6574 12.2278 15.4139 11.4465 14.8569L8.58048 12.8138C8.23311 12.5662 7.76689 12.5662 7.41952 12.8138L4.55352 14.8569C3.77216 15.4139 2.73095 14.6574 3.01924 13.7422L4.0767 10.3851C4.20487 9.97822 4.0608 9.53482 3.71795 9.28097L0.889204 7.1866C0.117996 6.6156 0.515701 5.39158 1.47524 5.38294L4.99479 5.35125C5.42137 5.34741 5.79855 5.07338 5.93402 4.66886L7.05176 1.33137Z" fill="#F8F2D8"/>
</svg>
